<svg id="图层_2" data-name="图层 2" xmlns="http://www.w3.org/2000/svg" viewBox="0 0 144.33 72.17"><defs><style>.cls-1{fill:#da1f0c;}.cls-2{fill:#fff;}</style></defs><title>搜题宝视觉</title><path class="cls-1" d="M6,0H138.33a6,6,0,0,1,6,6V52.7a6,6,0,0,1-6,6H2a2,2,0,0,1-2-2V6A6,6,0,0,1,6,0Z"/><polygon class="cls-1" points="0 72.17 16.85 53.14 0 47.5 0 72.17"/><path class="cls-2" d="M50.89,45.87H45.54V30.35H27.35V45.87H22.18V11.32h5.17V25.84H45.54V11.32h5.35Z"/><path class="cls-2" d="M73.59,10.82q15.51,1,16.69,17.86-.84,16.86-16.86,17.7-15.86-.84-16.69-17.7Q57.56,11.65,73.59,10.82Zm-.34,31.05q10.68-.51,11.19-13.19-.51-12.51-11-13.35-10.52.84-11.18,13.35Q62.74,41,73.25,41.87Z"/><path class="cls-2" d="M122.16,15.66H110.48V45.87H105.3V15.66H93.45V11.32h28.71Z"/></svg>