<svg id="图层_1" data-name="图层 1" xmlns="http://www.w3.org/2000/svg" viewBox="0 0 136.81 33.92"><defs><style>.cls-1{fill:#221714;}.cls-2{fill:#952224;}.cls-3{fill:#231815;}</style></defs><title>全品AI教研云logo</title><rect class="cls-1" x="132.67" y="3.23" width="2.84" height="15.62"/><polygon class="cls-2" points="23.45 0.01 0 0.01 0 2.35 21.1 2.35 21.1 9.39 12.89 9.39 12.89 11.73 21.1 11.73 21.1 14.07 12.89 14.07 12.89 16.42 21.1 16.42 21.1 23.45 4.7 23.45 4.7 25.8 10.55 25.8 10.55 28.14 2.35 28.14 2.35 21.11 18.76 21.11 18.76 18.76 2.35 18.76 2.35 16.42 10.55 16.42 10.55 14.07 2.35 14.07 2.35 11.73 10.55 11.73 10.55 9.39 2.35 9.39 2.35 7.04 18.76 7.04 18.76 4.7 0 4.7 0 30.48 0.03 30.48 0.03 30.48 23.44 30.48 23.44 28.14 12.89 28.14 12.89 25.8 23.45 25.8 23.45 25.73 23.45 0.01"/><polygon class="cls-1" points="28.17 7.95 38.56 7.95 38.56 11.16 28.17 11.16 28.17 13.42 38.56 13.42 38.56 16.64 28.17 16.64 28.17 18.9 51.79 18.9 51.79 16.64 41.4 16.64 41.4 13.42 51.79 13.42 51.79 11.16 41.4 11.16 41.4 7.95 51.79 7.95 51.79 5.68 28.17 5.68 28.17 7.95"/><polygon class="cls-1" points="28.17 0.01 28.17 4.54 31.01 4.54 31.01 2.28 48.96 2.28 48.96 4.54 51.79 4.54 51.79 0.01 28.17 0.01"/><polygon class="cls-1" points="56.51 0.01 56.51 2.28 77.3 2.28 77.3 6.05 56.51 6.05 56.51 8.32 80.13 8.32 80.13 0.01 56.51 0.01"/><polygon class="cls-1" points="56.51 11.91 64.54 11.91 64.54 16.64 56.51 16.64 56.51 18.9 67.38 18.9 67.38 9.64 56.51 9.64 56.51 11.91"/><polygon class="cls-1" points="69.27 11.91 77.3 11.91 77.3 16.64 69.27 16.64 69.27 18.9 80.13 18.9 80.13 9.64 69.27 9.64 69.27 11.91"/><rect class="cls-1" x="84.85" y="0.01" width="8.47" height="2.27"/><rect class="cls-1" x="91.34" y="0.01" width="2.83" height="8.71"/><rect class="cls-1" x="95.63" y="0.01" width="12.84" height="2.27"/><rect class="cls-1" x="95.63" y="4.04" width="12.84" height="2.27"/><rect class="cls-1" x="88.34" y="16.64" width="20.13" height="2.27"/><rect class="cls-1" x="84.85" y="6.45" width="9.32" height="2.27"/><rect class="cls-1" x="84.85" y="9.66" width="9.32" height="2.27"/><rect class="cls-1" x="84.85" y="3.23" width="9.32" height="2.27"/><rect class="cls-1" x="88.34" y="13.14" width="5.83" height="2.27"/><rect class="cls-1" x="88.34" y="11.91" width="2.85" height="4.72"/><rect class="cls-1" x="100.64" y="5.68" width="2.85" height="5.48"/><rect class="cls-1" x="84.85" y="14.56" width="2.82" height="4.34"/><rect class="cls-1" x="95.63" y="4.04" width="2.84" height="7.91"/><rect class="cls-1" x="115.34" y="3.23" width="2.84" height="15.62"/><rect class="cls-1" x="105.64" y="4.04" width="2.83" height="7.87"/><rect class="cls-1" x="100.64" y="0.01" width="2.85" height="5.1"/><rect class="cls-1" x="95.63" y="13.14" width="2.85" height="2.27"/><rect class="cls-1" x="105.64" y="13.14" width="2.83" height="2.27"/><polygon class="cls-1" points="103.48 11.97 98.48 15.41 98.48 13.14 103.48 9.71 103.48 11.97"/><polygon class="cls-1" points="100.64 11.97 105.64 15.41 105.64 13.14 100.64 9.71 100.64 11.97"/><rect class="cls-1" x="120.54" y="-0.04" width="2.84" height="2.27"/><rect class="cls-1" x="115.34" y="1.43" width="20.17" height="2.27"/><rect class="cls-1" x="113.18" y="9.66" width="23.62" height="2.27"/><rect class="cls-1" x="123.86" y="4.67" width="2.27" height="4.21" transform="translate(90.91 127.22) rotate(-77.3)"/><rect class="cls-1" x="123.86" y="12.89" width="2.27" height="4.21" transform="translate(82.88 133.64) rotate(-77.3)"/><rect class="cls-1" x="113.18" y="16.64" width="4.95" height="2.27"/><rect class="cls-1" x="130.52" y="16.64" width="4.99" height="2.27"/><path class="cls-3" d="M28.3,26.67V26.1h3.86v.57H30.83v.94h1.26v.53H30.83v1.23a6.43,6.43,0,0,0,1.37.18c1.64,0,3.17,0,4.6,0,0,.07-.06.19-.1.35a2.22,2.22,0,0,0-.14.32H34.69c-1.14,0-2,0-2.56,0-1.48,0-2.44-.46-2.89-1.3a4,4,0,0,1-.59,1.51l-.46-.46a4.89,4.89,0,0,0,.63-2.77h.6a4.41,4.41,0,0,1-.07.88,2.36,2.36,0,0,0,.84,1V26.67Zm.49-1.27V22.31h3V25.4Zm.59-2.57v.78h1.8v-.78Zm0,1.27v.81h1.8V24.1Zm6.72,5.1c-.52-.45-1.09-.92-1.72-1.41a3.51,3.51,0,0,1-1.87,1.51l-.14-.17a1.57,1.57,0,0,0-.24-.36,2.43,2.43,0,0,0,2-2.74l0-1.09h.6l0,1.09a6.19,6.19,0,0,1-.1,1.2l.81.6c.47.37.83.65,1.09.84Zm-3.73-6.3v-.56h4.19v.56h-1.9l-.18,1h1.73V27.4h-.6V24.45H33.22V27.4h-.57V23.92h1.16l.18-1Z"/><path class="cls-3" d="M46.23,26c-.52-.47-.95-.83-1.3-1.09l.45-.49a11.16,11.16,0,0,1,1.34,1Zm-.39,4.39-.74-.21c.28-1,.57-2,.85-3.16l.35.1a2.22,2.22,0,0,0,.32.14C46.38,28.15,46.12,29.2,45.84,30.39Zm.67-6.71c-.54-.5-1-.87-1.3-1.13l.46-.49.42.35c.4.31.7.55.91.74Zm.74,1.19a4.6,4.6,0,0,0-.46-.53,6.87,6.87,0,0,0,1.76-2.46l.7.11a5.72,5.72,0,0,0-.38.74h4.39v.6H48.48A10.37,10.37,0,0,1,47.25,24.87Zm-.39,2v-.6h.88L48,24.13h4.67l0,2.15h.84v.6h-.88a15.71,15.71,0,0,1-.07,1.58h.7v.6h-.7a1.21,1.21,0,0,1-1.4,1.3h-1.2a2.34,2.34,0,0,1-.07-.32l-.11-.32c.38,0,.78,0,1.2,0s.87-.21.91-.7H47.39l.24-2.18Zm5,1.58a7.2,7.2,0,0,0,0-.78c0-.37,0-.64,0-.8H48.34l-.21,1.58Zm-3.31-3.73-.17,1.55H52V24.73Zm1.83,3.59-.31-.25-.71-.56.35-.39c.29.19.64.45,1.06.78Zm.11-2.22a9.53,9.53,0,0,0-1-.81l.35-.38c.28.18.63.44,1,.77Z"/><path class="cls-3" d="M62.37,23.22v-.67h7v.67H66.13a16.79,16.79,0,0,1-.17,2h4v.71H66.69v2.81c0,.54.21.78.78.74h1a.71.71,0,0,0,.81-.71,7.82,7.82,0,0,0,.07-1.05,5.18,5.18,0,0,0,.53.18.73.73,0,0,1,.21.07,2.3,2.3,0,0,0,0,.42,5.76,5.76,0,0,1-.14.77c-.07.68-.51,1-1.33,1H67.22c-.84,0-1.25-.4-1.23-1.27V25.93h-.21a6.48,6.48,0,0,1-3.62,4.53l-.53-.6A5.93,5.93,0,0,0,65,25.93H61.7v-.71h3.48a12,12,0,0,0,.21-2Z"/><path class="cls-3" d="M79.56,26.07c-.58-.59-1-1-1.3-1.27l.5-.42c.46.4.92.81,1.37,1.23Zm-.49,4.25-.67-.17c.07-.26.18-.68.32-1.27.24-1,.4-1.71.49-2.11l.42.14a1.15,1.15,0,0,1,.22.07C79.71,27.68,79.45,28.8,79.07,30.32Zm.78-6.57-1.27-1.23.49-.43.42.39a8.74,8.74,0,0,1,.88.81Zm.52,6.64-.1-.07-.49-.39a4.9,4.9,0,0,0,.77-1.82,13.06,13.06,0,0,0,.21-2.71V22.45h6V23H81.43v2.32a15.36,15.36,0,0,1-.21,3A6.44,6.44,0,0,1,80.37,30.39Zm1.48-2.21v-.6h1.9v-.81h.67v.81h1.93v.6H84.42v1.23h2.32V30H81.32v-.59h2.43V28.18ZM82,24.7v-.6h1.72v-.88h.67v.88h1.75v.6H84.42v1.12h2.14v.63H81.64v-.63h2.11V24.7Z"/><path class="cls-3" d="M95.32,22.94v-.6h7.59v.6H98.45l-.28,1H102v1.8h1.44v.59H95v-.59h2l.31-1.23H95.63V24h1.8l.28-1Zm.77,7.45V27.3h6.22v3.09h-.7v-.46H96.83v.46Zm.74-2.49v1.44h4.78V27.9Zm4.43-3.34H98l-.32,1.23h3.59Z"/><path class="cls-3" d="M111.85,26.91a3.51,3.51,0,0,0-.29-.77A16.12,16.12,0,0,0,113.5,22l.7.18a18.73,18.73,0,0,1-.74,1.93v6.37h-.7v-5A16.71,16.71,0,0,1,111.85,26.91Zm2.63-.95a2.88,2.88,0,0,0-.52-.53A10.77,10.77,0,0,0,115.78,22l.71.14a9.54,9.54,0,0,1-.39,1,1.71,1.71,0,0,1-.07.18h4.08V24h-3.06v1.51h2.57v.67h-2.57v1.54h2.81v.67h-2.81v2.08h-.7V24h-.64A11.53,11.53,0,0,1,114.48,26Z"/><path class="cls-3" d="M128.3,26.63V26h1.41V22.87h1.79a2.42,2.42,0,0,0,.11-.25c.11-.3.2-.54.24-.7l.78.1a2.41,2.41,0,0,1-.11.25,4.62,4.62,0,0,1-.28.6h3.23V26h1.31v.67h-1.31v2.46a1,1,0,0,1-1.12,1.2c-.4,0-.82,0-1.27,0,0-.12-.05-.28-.1-.49s0-.18-.07-.25h.46a6.13,6.13,0,0,0,.63,0c.54,0,.8-.21.77-.7V26.63h-4.36a5.7,5.7,0,0,1-1.23,3.83l-.1-.07-.5-.39a5,5,0,0,0,1.13-3.37Zm2.15-1V26h4.32V23.54h-4.32Zm2.49,3.09-.1-.07c-.59-.56-1-1-1.34-1.2L132,27l1.44,1.23Zm0-3.16a10.43,10.43,0,0,0-1.37-1.16L132,24a16.89,16.89,0,0,1,1.41,1.12Z"/></svg>