<svg id="图层_1" data-name="图层 1" xmlns="http://www.w3.org/2000/svg" viewBox="0 0 331.95 33.92"><defs><style>.cls-1{fill:#221714;}.cls-2{fill:#952224;}.cls-3{fill:#231815;}.cls-4{fill:#040000;}</style></defs><title>全品AI教研云logo</title><rect class="cls-1" x="150.72" y="0.5" width="0.82" height="28.56"/><rect class="cls-1" x="132.67" y="3.27" width="2.84" height="15.62"/><polygon class="cls-2" points="23.45 0.05 0 0.05 0 2.39 21.1 2.39 21.1 9.42 12.89 9.42 12.89 11.77 21.1 11.77 21.1 14.11 12.89 14.11 12.89 16.46 21.1 16.46 21.1 23.49 4.7 23.49 4.7 25.83 10.55 25.83 10.55 28.18 2.35 28.18 2.35 21.15 18.76 21.15 18.76 18.8 2.35 18.8 2.35 16.46 10.55 16.46 10.55 14.11 2.35 14.11 2.35 11.77 10.55 11.77 10.55 9.42 2.35 9.42 2.35 7.08 18.76 7.08 18.76 4.74 0 4.73 0 30.52 0.03 30.52 0.03 30.52 23.44 30.52 23.44 28.18 12.89 28.18 12.89 25.83 23.45 25.83 23.45 25.76 23.45 0.05"/><polygon class="cls-1" points="28.17 7.98 38.56 7.98 38.56 11.2 28.17 11.2 28.17 13.46 38.56 13.46 38.56 16.67 28.17 16.67 28.17 18.94 51.79 18.94 51.79 16.67 41.4 16.67 41.4 13.46 51.79 13.46 51.79 11.2 41.4 11.2 41.4 7.98 51.79 7.98 51.79 5.72 28.17 5.72 28.17 7.98"/><polygon class="cls-1" points="28.17 0.05 28.17 4.58 31.01 4.58 31.01 2.31 48.96 2.31 48.96 4.58 51.79 4.58 51.79 0.05 28.17 0.05"/><polygon class="cls-1" points="56.51 0.05 56.51 2.31 77.3 2.31 77.3 6.09 56.51 6.09 56.51 8.36 80.13 8.36 80.13 0.05 56.51 0.05"/><polygon class="cls-1" points="56.51 11.95 64.54 11.95 64.54 16.67 56.51 16.67 56.51 18.94 67.38 18.94 67.38 9.68 56.51 9.68 56.51 11.95"/><polygon class="cls-1" points="69.27 11.95 77.3 11.95 77.3 16.67 69.27 16.67 69.27 18.94 80.13 18.94 80.13 9.68 69.27 9.68 69.27 11.95"/><rect class="cls-1" x="84.85" y="0.05" width="8.47" height="2.27"/><rect class="cls-1" x="91.34" y="0.05" width="2.83" height="8.71"/><rect class="cls-1" x="95.63" y="0.05" width="12.84" height="2.27"/><rect class="cls-1" x="95.63" y="4.08" width="12.84" height="2.27"/><rect class="cls-1" x="88.34" y="16.67" width="20.13" height="2.27"/><rect class="cls-1" x="84.85" y="6.49" width="9.32" height="2.27"/><rect class="cls-1" x="84.85" y="9.7" width="9.32" height="2.27"/><rect class="cls-1" x="84.85" y="3.27" width="9.32" height="2.27"/><rect class="cls-1" x="88.34" y="13.18" width="5.83" height="2.27"/><rect class="cls-1" x="88.34" y="11.95" width="2.85" height="4.72"/><rect class="cls-1" x="100.64" y="5.72" width="2.85" height="5.48"/><rect class="cls-1" x="84.85" y="14.6" width="2.82" height="4.34"/><rect class="cls-1" x="95.63" y="4.08" width="2.84" height="7.91"/><rect class="cls-1" x="115.34" y="3.27" width="2.84" height="15.62"/><rect class="cls-1" x="105.64" y="4.08" width="2.83" height="7.87"/><rect class="cls-1" x="100.64" y="0.05" width="2.85" height="5.1"/><rect class="cls-1" x="95.63" y="13.18" width="2.85" height="2.27"/><rect class="cls-1" x="105.64" y="13.18" width="2.83" height="2.27"/><polygon class="cls-1" points="103.48 12.01 98.48 15.45 98.48 13.18 103.48 9.74 103.48 12.01"/><polygon class="cls-1" points="100.64 12.01 105.64 15.45 105.64 13.18 100.64 9.74 100.64 12.01"/><rect class="cls-1" x="120.54" width="2.84" height="2.27"/><rect class="cls-1" x="115.34" y="1.46" width="20.17" height="2.27"/><rect class="cls-1" x="113.18" y="9.7" width="23.62" height="2.27"/><rect class="cls-1" x="123.86" y="4.71" width="2.27" height="4.21" transform="translate(90.87 127.25) rotate(-77.3)"/><rect class="cls-1" x="123.86" y="12.93" width="2.27" height="4.21" transform="translate(82.85 133.67) rotate(-77.3)"/><rect class="cls-1" x="113.18" y="16.67" width="4.95" height="2.27"/><path class="cls-1" d="M32.55,30.11a2.28,2.28,0,0,1-1.38.38A2,2,0,0,1,29.76,30a2.19,2.19,0,0,1-.55-1.72v-3h-1v-1h1V22.48h1.2v1.77h1.8v1h-1.8v2.84c0,.85.31,1.27.94,1.27a1.47,1.47,0,0,0,.79-.22Z"/><path class="cls-1" d="M36.31,23a.77.77,0,0,1,0-1.1.72.72,0,0,1,.53-.23.75.75,0,0,1,.55.23.76.76,0,0,1,.23.55.74.74,0,0,1-.24.55.71.71,0,0,1-.54.24.69.69,0,0,1-.53-.24m1.14,7.34H36.24V24.25h1.21Z"/><path class="cls-1" d="M42,30.26a.81.81,0,0,1,0-1.11.76.76,0,0,1,1.09,0,.78.78,0,0,1,0,1.11.75.75,0,0,1-.55.24.71.71,0,0,1-.54-.24"/><path class="cls-1" d="M51.19,28.63l.93.54a2.23,2.23,0,0,1-.9,1,2.69,2.69,0,0,1-1.34.33,3,3,0,0,1-1.51-.39A2.88,2.88,0,0,1,47.29,29a3.43,3.43,0,0,1-.4-1.69,3.38,3.38,0,0,1,.4-1.69,2.84,2.84,0,0,1,1.08-1.12,3,3,0,0,1,1.51-.39,2.69,2.69,0,0,1,1.34.33,2.28,2.28,0,0,1,.9,1l-.93.55a1.5,1.5,0,0,0-1.32-.76,1.56,1.56,0,0,0-1.24.56,2.73,2.73,0,0,0,0,3.06,1.56,1.56,0,0,0,1.24.56,1.5,1.5,0,0,0,1.32-.76"/><path class="cls-1" d="M60.07,24.75a2.45,2.45,0,0,1,.68,1.86v3.75h-1c0-.36,0-.61-.06-.76a2,2,0,0,1-1.81.89,2.82,2.82,0,0,1-1.13-.23,1.86,1.86,0,0,1-.81-.65,1.65,1.65,0,0,1-.31-1,1.7,1.7,0,0,1,.74-1.44,3.23,3.23,0,0,1,1.9-.53,5.24,5.24,0,0,1,1.33.18v0a1.88,1.88,0,0,0-.33-1.23,1.2,1.2,0,0,0-1-.4,1.66,1.66,0,0,0-.89.23,2,2,0,0,0-.61.67l-.89-.52a2.27,2.27,0,0,1,.95-1,2.9,2.9,0,0,1,1.51-.39,2.46,2.46,0,0,1,1.77.65m-.52,3a5.14,5.14,0,0,0-1.24-.18,1.87,1.87,0,0,0-1.09.27.88.88,0,0,0-.39.76.84.84,0,0,0,.31.69,1.4,1.4,0,0,0,.84.25,1.77,1.77,0,0,0,1.11-.37,1.27,1.27,0,0,0,.46-1Z"/><path class="cls-1" d="M69.85,24.75a2.71,2.71,0,0,1,.59,1.87v3.74H69.22V27a2.31,2.31,0,0,0-.31-1.31,1.13,1.13,0,0,0-1-.46,1.53,1.53,0,0,0-1.12.47A1.79,1.79,0,0,0,66.35,27v3.35H65.14V24.25h1.07c0,.38,0,.71.07,1a2.13,2.13,0,0,1,.82-.86,2.36,2.36,0,0,1,1.17-.28,2,2,0,0,1,1.58.64"/><path class="cls-1" d="M79.32,24.49a2.72,2.72,0,0,1,1,1.1,4,4,0,0,1,0,3.42,2.72,2.72,0,0,1-1,1.1,2.51,2.51,0,0,1-1.33.38,2.44,2.44,0,0,1-1.1-.26,2.12,2.12,0,0,1-.85-.78v3.64H74.83V24.25H75.9c0,.39,0,.72.07,1a2.24,2.24,0,0,1,.87-.86A2.39,2.39,0,0,1,78,24.1a2.43,2.43,0,0,1,1.33.39M79,28.83a2.35,2.35,0,0,0,.45-1.53A2.37,2.37,0,0,0,79,25.76a1.48,1.48,0,0,0-1.2-.56,1.65,1.65,0,0,0-1.23.52A2.16,2.16,0,0,0,76,27.3a2.12,2.12,0,0,0,.51,1.57,1.68,1.68,0,0,0,1.23.51,1.45,1.45,0,0,0,1.2-.55"/><path class="cls-1" d="M84.88,25.64a2.94,2.94,0,0,1,2.59-1.53,2.8,2.8,0,0,1,1.47.4A2.92,2.92,0,0,1,90,25.64,3.57,3.57,0,0,1,90,29a3.06,3.06,0,0,1-1.1,1.13,2.9,2.9,0,0,1-1.47.4,3,3,0,0,1-1.49-.4A3.06,3.06,0,0,1,84.88,29a3.57,3.57,0,0,1,0-3.32m1.35,3.19a1.56,1.56,0,0,0,1.23.56,1.59,1.59,0,0,0,1.24-.56,2.3,2.3,0,0,0,.48-1.53,2.27,2.27,0,0,0-.49-1.53,1.56,1.56,0,0,0-1.23-.57,1.54,1.54,0,0,0-1.23.57,2.22,2.22,0,0,0-.49,1.53,2.25,2.25,0,0,0,.49,1.53"/><path class="cls-1" d="M94.65,23a.8.8,0,0,1,0-1.1.74.74,0,0,1,.53-.23.77.77,0,0,1,.56.23.8.8,0,0,1,.22.55.76.76,0,0,1-.23.55.74.74,0,0,1-.55.24.71.71,0,0,1-.53-.24m1.14,7.34H94.58V24.25h1.21Z"/><path class="cls-1" d="M105,24.75a2.71,2.71,0,0,1,.59,1.87v3.74h-1.21V27a2.3,2.3,0,0,0-.32-1.31,1.12,1.12,0,0,0-1-.46,1.53,1.53,0,0,0-1.12.47A1.79,1.79,0,0,0,101.5,27v3.35h-1.21V24.25h1.07c0,.38,0,.71.07,1a2.2,2.2,0,0,1,.82-.86,2.36,2.36,0,0,1,1.17-.28,2,2,0,0,1,1.58.64"/><path class="cls-1" d="M113.59,30.11a2.27,2.27,0,0,1-1.37.38A2.07,2.07,0,0,1,110.8,30a2.19,2.19,0,0,1-.55-1.72v-3h-1v-1h1V22.48h1.2v1.77h1.8v1h-1.8v2.84c0,.85.32,1.27.94,1.27a1.45,1.45,0,0,0,.79-.22Z"/><path class="cls-1" d="M117.63,30.26a.81.81,0,0,1,0-1.11.7.7,0,0,1,.53-.23.77.77,0,0,1,.56.23.8.8,0,0,1,.22.56.76.76,0,0,1-.23.55.74.74,0,0,1-.55.24.68.68,0,0,1-.53-.24"/><path class="cls-1" d="M126.85,28.63l.93.54a2.17,2.17,0,0,1-.9,1,2.66,2.66,0,0,1-1.34.33,2.94,2.94,0,0,1-1.5-.39A2.84,2.84,0,0,1,123,29a3.55,3.55,0,0,1-.4-1.69,3.49,3.49,0,0,1,.4-1.69A2.8,2.8,0,0,1,124,24.49a2.94,2.94,0,0,1,1.5-.39,2.66,2.66,0,0,1,1.34.33,2.22,2.22,0,0,1,.9,1l-.93.55a1.5,1.5,0,0,0-1.32-.76,1.53,1.53,0,0,0-1.23.56,2.26,2.26,0,0,0-.47,1.53,2.26,2.26,0,0,0,.47,1.53,1.53,1.53,0,0,0,1.23.56,1.5,1.5,0,0,0,1.32-.76"/><path class="cls-1" d="M136.22,24.75a2.71,2.71,0,0,1,.59,1.87v3.74H135.6V27a2.3,2.3,0,0,0-.32-1.31,1.11,1.11,0,0,0-1-.46,1.53,1.53,0,0,0-1.12.47,1.79,1.79,0,0,0-.47,1.32v3.35h-1.21V24.25h1.07c0,.38,0,.71.07,1a2.2,2.2,0,0,1,.82-.86,2.36,2.36,0,0,1,1.17-.28,2,2,0,0,1,1.58.64"/><rect class="cls-1" x="130.52" y="16.67" width="4.99" height="2.27"/><path class="cls-3" d="M180.22,25.84c-.16,0-3.41-1.7-4.68-2.45-.37-.18-1.83-1.15-2.14-1.39-.12-.19-.19-.1-.34-.25-.78-.56-1.55-1.33-2.36-1.86a.1.1,0,0,0-.06,0c-.21,0-.25.37-.52.37s-.53-.46-.59-.71a10.53,10.53,0,0,0-.25-1.27,4.45,4.45,0,0,0-.34-.5l-.44-.43a6.22,6.22,0,0,1-.58-.75c-.19-.15-.5-.8-.75-.8a.13.13,0,0,0-.09,0c-.28.46-.62,1.08-.93,1.61a.55.55,0,0,0-.12.16l-3,5.26s-.37.38-.47.34c-.31-.15-.37-.27-.37-.52,0-.56,1.61-2.7,1.86-3.22L165.78,16a2.1,2.1,0,0,0,.59-1.77c.12-.06.24-.16.24-.28v-.06a4.39,4.39,0,0,1-1.7.37,1.32,1.32,0,0,1-.31,0,1.86,1.86,0,0,1-.19-.59,10.85,10.85,0,0,1,1.68-1c.18,0,.28.09.49.09s.28,0,.28-.18c0-.62-.56-1.59-.59-2.27-.12-1.21-.12-2.44-.24-3.65,0-.38-.53-3.47-.59-3.85v-1c.09-.28.28-.28.49-.28.71,0,.44,1.3.81,1.77A10.15,10.15,0,0,1,170.46,2h.31A1.14,1.14,0,0,1,172,3.19c0,1.86-1.09,3.37-1.55,5.11,0,0-.07.09-.1.09-.52.37-1.08,1-1.76.84a2.11,2.11,0,0,0-1.06,1.61c0,.59.38.87,1,.87s.59-.65,1-.84c.06,0,.77-.22.83-.25.69-.31,1.89-1.55,2.7-1.55.19,0,.37,0,.37.28,0,1.4-2.54,1.61-3,2.45a8.09,8.09,0,0,0-.34,3.38,7.16,7.16,0,0,0,.15,2.14s.09-.13.09-.16a18.34,18.34,0,0,1,1.52-2.54c.65-.9,1.58-1.14,1.89-2.23a2.84,2.84,0,0,1,1.61-.84c.28,0,.38,0,.38.28a1.54,1.54,0,0,1-.13.65c-1.8,1.24-4.34,3.54-4.34,5.95,0,1.15,1.18,1.8,2,2.39,1.39,1,2.72,1.74,4.12,2.7,0,0,.09.09.09.09l6.11,2.48h.34V24.6c.4,0,1.55,1.8,1.55,1.95a1.43,1.43,0,0,1-.41.81H185a2.52,2.52,0,0,1-.93-.25,14.35,14.35,0,0,1-1.52-.34,18.76,18.76,0,0,1-2.23-.93ZM170,6.63a2.09,2.09,0,0,0,.34-.44l.69-2.1V3.25L170.83,3l-.37,0c-1.31,0-2.36,1-3.66,1,0,.1.06.34.06.41,0,.24.19,1.39.22,1.61l.12.06c.62,0,1.15-.62,1.83-.62C169.53,5.48,170.21,6,170,6.63ZM168.35,8h.15c.16-.09,1-.4,1.18-.5a2.69,2.69,0,0,0,.19-.43l0-.06c-.62,0-.56-.34-1-.34-.28,0-1.24.34-1.24.65A.85.85,0,0,0,168.35,8Zm.74,8.43V15.3c0-.52.16-1.64-.49-2a1.88,1.88,0,0,0-.81,1.24v.15A3.29,3.29,0,0,0,169.09,16.39Zm9.24.43c-.9-.25-1-1.49-1.18-2.2,0-.25-.37-1.36-.46-1.64a.75.75,0,0,1-.13-.25c0-.18-.4-1.67-.46-1.86-.22-.65-.84-1.45-.84-2.17a.6.6,0,0,1,.53-.56c.4,0,.68.56.77.84.13-.18.71-1.08.84-1.27s1.67-3.38,1.67-3.59a32.36,32.36,0,0,0-3.35.65c-.09,0-.61.12-.68.12a.9.9,0,0,1-.24.12.82.82,0,0,1-.72-.77c0-.25.06-.25.37-.4A14.26,14.26,0,0,1,177,3.5c1.42-.31,2.91-1.06,4.34-1.06.27,0,.37.06.46.34a6.17,6.17,0,0,1-1.52,1.77l-3.16,5.14v.22A1.55,1.55,0,0,0,177.4,11c.84-1.64,2.63-3.75,4.74-3.75,1.39,0,1.58,2.76,1.58,3.75v.59c-.06.56-.5,3-.59,3.54A2.9,2.9,0,0,1,182,16.82l-.21,0c-.93,0-.93-1.36-1.34-1.89-.12.06-.21.59-.43.47a2.23,2.23,0,0,1-.15.59s-.07.12-.1.12c-.12.34-.77,1.89-.93,2.2s-.59,1.09-.71,1.3-.59.9-.68,1.06-.19.21-.37.21c-.34,0-.47-.15-.47-.46C176.56,20,178.24,17.88,178.33,16.82Zm3.41-1.18c.25-.06.43-.83.43-.93.13-.52.5-2.2.5-2.32s0-1.18,0-1.58c0-.25,0-1.36,0-1.58-.22-.31-.25-.93-.78-.93a2,2,0,0,0-1.08.34,5.09,5.09,0,0,0-2.73,4.46,6.22,6.22,0,0,0,.25,1.74c.22.12.15.71.4.71h.06s.1-.31.1-.34a3.27,3.27,0,0,0,.24-.5l.59-3.75c0-.18.25-.21.41-.21s.52,0,.52.21v3.2C180.75,14.31,181.27,15.77,181.74,15.64Zm.34,3.29c-.81-.28-2.33-.25-2.82-.93.09-.09.25-.25.4-.25,2.08,0,5.61,1,6.85,2.73,0,0,0,.25,0,.28,0,.31-.12,1-.62.9-.28-.07-.22-.47-.34-.59-.37-.53-1.58-1.12-1.77-1.43C183.53,19.52,182.36,19,182.08,18.93Z"/><path class="cls-3" d="M188.06,21.63c.28-.31.28-.75.62-1l3.78-5.73A21.31,21.31,0,0,1,193.7,13c.06,0,.09.34.09.4a2.5,2.5,0,0,1-.62,1.86c.06.09-.15.47-.21.53-.59,1-1.68,2.51-2.3,3.47s-2,4.4-2.66,4.55a.61.61,0,0,1-.81-.52C187.19,22.62,187.75,22.28,188.06,21.63ZM187.75,11a8.41,8.41,0,0,0,1.55-.43,6.11,6.11,0,0,1,2-.15h1a.89.89,0,0,1,.62.74c0,.12,0,.4-.24.34a3.33,3.33,0,0,1-.5-.25h-.4a6.42,6.42,0,0,0-2.2.25,3.08,3.08,0,0,1-1.24.47h-.1l-.59-.56v-.1C187.59,11.18,187.69,11.09,187.75,11Zm1.92-5.39c0-.4.06-.71.62-.71,1.09,0,4.84,1.58,4.84,2.54,0,.16,0,.44-.19.44s-.71-.5-.9-.63a18.44,18.44,0,0,0-4.15-1.3A.63.63,0,0,1,189.67,5.57Zm14.78,14.66-3.06-.09c-1.46-.06-6.11-.1-6.85-1.43a.1.1,0,0,0,0-.06c0-.56,1.36-2,1.76-2.54a2,2,0,0,0,.25-.25c.37-.28.34-.62.84-.93a1,1,0,0,0-.31,0,2,2,0,0,0-.53.12,15,15,0,0,1-2.23.75h-.13c-.27,0-.37-.31-.37-.56s.22-.4.37-.65l1.18-.47s.13,0,.13,0l2.13-.37c.22,0,.75,0,.93-.24,1.12-1.09,2.08-2.58,3.1-3.79a.24.24,0,0,0,.07-.15,2.83,2.83,0,0,0-2.45.9h-.1c-.27,0-.49-.37-.49-.59,0-.56,1.18-.93,1.18-1.21l-.1-.22a6.51,6.51,0,0,1-.24-.71s.09-.43.09-.5a9.28,9.28,0,0,0,0-1,7.84,7.84,0,0,0,0-1c0-.12-.16-.93-.22-1.21-.15-.62-1.08-.93-1.08-1.61,0-.4.12-.62.55-.62,1.34,0,1.68,3,1.71,3.88V7.21a.18.18,0,0,0,.18.16h.07a5.92,5.92,0,0,1,.83-.74c.31-.22,1-.34,1.15-.72h1.08c.38,0,.72,1,.72,1.27v.19l-.59,1c1.11.78,3.25.47,4.49.69.5.31.44.49.72,1V12.2c-.38.59-.22,2.2-.25,3-.13,2.11-.28,4.28-.47,6.35a15.72,15.72,0,0,0-.25,2l-.68.68h-.06c-.28,0-2.23-2.94-2.42-3.29a5.11,5.11,0,0,1-.37-.74Zm.47-1.05c.15,0,1.08.12,1.21.12a.39.39,0,0,0,.34-.12c-.75-.5-.5-1.21-1.64-1.68-.19-.09-.25-.4-.1-.4s.34-.22.44-.15c.62.21,1.7,1.58,2.38,1.76a19.57,19.57,0,0,0,.34-4.68v-.74c-.21.56-.34.19-.93.34a1.6,1.6,0,0,0-.37.25,10.23,10.23,0,0,0-2.14.34,11.26,11.26,0,0,1-.24,1.3s-.1.22-.1.25c-.09.34,0,3.13-.74,3.28,0,0-.34-.12-.34-.21V14.31l-.1-.09c-1.2.12-3.06,0-4.27.59l-1.4,1.76c-.28.38-1.21,1.12-1.21,1.62,0,.8,4.16.83,4.84,1ZM203.18,9.6a6.32,6.32,0,0,0-.86.84c-.69.8-2.36,2.91-2.36,2.94v.16c.12,0,3.07-.16,3.22-.5a9.67,9.67,0,0,0,.1-1.89c0-.25.09-1.3.09-1.55Zm-.86-2.14c-.19.13-1.12.81-1.28,1h.1c.25,0,1.3-.09,1.55-.12a2.74,2.74,0,0,0,.59-.9c0-.19-.25-.19-.35-.19A1,1,0,0,0,202.32,7.46ZM204.45,13h1.31c.4,0,.52-.71.83-.84a4.34,4.34,0,0,1,1.43.59,8.25,8.25,0,0,0,.12-1.7v-.78c-.31-.46-2.29-.62-2.91-.62h-.4C204.79,10.84,204.45,11.93,204.45,13Zm1.68,8.15A9.4,9.4,0,0,0,207,22h.22a5.87,5.87,0,0,0,.25-1.3c0-.07,0-.5,0-.59-.22,0-1.4.09-1.64.09s-.1,0-.35.16A3.7,3.7,0,0,0,206.13,21.19Z"/><path class="cls-3" d="M222.83,11.77h-.18l-1,1.86c-.52.28-.28,1.27-.77,1.52-.25.4-1.3,2.35-1.52,2.79-.34.62-2.29,4.74-3.28,4.74a.4.4,0,0,1-.44-.44c0-.21.09-.83.34-.83a2.3,2.3,0,0,0,.25.09c.22-.06.77-1.05.93-1.27s.71-1.33.77-1.52.41-1,.5-1.11.09-.13.09-.16a32.16,32.16,0,0,0,2.7-5,1.7,1.7,0,0,0,.59-1.17s-.13-.1-.16-.1a15.33,15.33,0,0,1-4.15.68h-.84a.88.88,0,0,1-.34-.77c0-.25.06-.31.47-.37a.77.77,0,0,1,.37.12c.09-.06.68-.31.77-.37H218c.15,0,.18.09.18.25h.4a11.35,11.35,0,0,0,3.66-.81c.56-.31.93-2.29.93-2.69h-5.92a1,1,0,0,1-.59-.53c0-.5,1.06-.62,1.37-.62,1,0,1.83.15,2.85.12.12.13.22.1.4.1,1.49,0,2.88-.44,4.34-.44.31,0,.43.13.43.44s-.46.18-.46.43c0,.59,2.32.65,2.32,1.09A1,1,0,0,1,227,8.89c-.4.18-2.26,1.08-2.63,1.27l-.37.22a19.34,19.34,0,0,0-.13,2c0,2.26.53,7.28,2.54,8.71a6.48,6.48,0,0,0,3.32.77c1.46,0,4-.4,4.93-1.61a37.34,37.34,0,0,0,.59-5.55v-.8c-.37-.16-.28-.84-.5-1.18s-.28-.28-.28-.56h.44s.49.5.68.68a4.68,4.68,0,0,1,.68,2.64.57.57,0,0,1-.09.37v2.11c-.07,1.61-.28,3.19-2,3.9-.37.16-2,.75-2.35.84h-.09c-.1,0-.53.09-.59.09h-1.43c-2.63,0-4-.4-5.39-2.54-.37-.5-.37-1.21-.74-1.7A35.43,35.43,0,0,1,222.83,11.77Zm.9-2.54,0,0a.1.1,0,0,0,.06,0l1.06-.34a12,12,0,0,0,1.05-.59V8.18l-1.18-.59h-.09C224.44,7.59,223.79,9,223.73,9.23Z"/><path class="cls-3" d="M237.65,19.18c.28-.28,1.64-1.49,1.95-1.77.06,0,.31-.22.34-.22l3.87-3.59c.56-.28.31-.62.69-.84.15-.06.89-.4,1.05-.46-.12.43-.44.4-.47.93l-4.86,5.14h-.28a5.84,5.84,0,0,1-.93.93s-.53.34-.68.47a.59.59,0,0,1-.31.12c-.22,0-.4-.4-.4-.59C237.62,19.27,237.65,19.21,237.65,19.18Zm1-8.62c.25.06,1.36.31,1.64.34h1.05c.13,0,1.52.41,1.52.59v.9c-.68,0-.46-.5-1-.56-.4-.06-4.31.06-4.09-.68A1,1,0,0,1,238.67,10.56Zm1.76-5.86c.72,0,3.51,2.76,3.51,3.63,0,.19-.22.59-.41.59h-.09c0-1.77-3.59-2.39-3.59-3.81C239.85,4.92,240.4,4.7,240.43,4.7Zm5.12,20.77a1.29,1.29,0,0,0,.34,0,.74.74,0,0,0,.12-.34c.78-4.25.65-8.59,1.15-12.83.28-2.08.47-4.12.59-6.17,0-.25.25-2.11.25-2.36V3.25c0-.47-.34-.75-.34-1.15s.55-.53.89-.53c.72,0,1.46.19,2.14.25,2.05.1,4.22.13,6.29.1,0,0,.35.15.35.24l-.1.22c-.09.12-.52.62-.59.71-.34-.06-.55.25-.83.25,0,0-.19-.15-.22-.15l-.4,0a1.28,1.28,0,0,1,.15-.31c-2.08.06-3.72-.35-5.73-.35-.13,0-.9.07-1,.1a.24.24,0,0,0-.1.25,3.33,3.33,0,0,0,.34.24,6.08,6.08,0,0,0,.44.44c.12.09.59-.13.59.18s-.59.31-.69.65a17,17,0,0,0-.49,3c0,.4-.19,2.36-.19,2.79a0,0,0,0,0,0,0s.38-.68.41-.71c1-1.18,2.35-1.06,3.87-1.18h.68l.13-.25c-.16-.71-.31-1.27-.47-1.95V6c0-.47.28-.5.68-.5.72,0,.56.68.84,1.18a3.05,3.05,0,0,0,2,1.27l.22-.12c.34,0,1.55.18,1.55.62A.5.5,0,0,1,258,9a12.13,12.13,0,0,0-2.79.1,8.63,8.63,0,0,1,0,1.76c0,.06-.19.72-.22.81s0,.18,0,.22h.19l2.69-.78s.22,0,.28,0,.65,0,.65.25c0,1.05-1.27.8-1.86,1.05l-.68.34c-.31.1-1.52.53-2,.68.9,0,.77.9,1.42,1.18.5.19,1.62-.12,1.62.65,0,1.43-1.86,1.3-1.86,1.8v3c1.61,0,3.31-.56,5-.56H261c.19,0,.16.28.16.34,0,.8-.5.74-1.09,1l-.09-.25-.25,0a25.5,25.5,0,0,0-5,.87c-1.49.28-3.07.43-4.55.8-.16.07-.72.19-.78.22s-.12.13-.15.13l0,0c-.31,0-.56-.62-.56-.84,0-.68,2.79-.87,3.28-.93s2.17-.34,2.23-.37l.22-.09a2.49,2.49,0,0,0,0-.53,10.82,10.82,0,0,0-.25-2.42h-.31a7,7,0,0,0-1.45.5c-.44.09-2.48.4-2.91.46a.66.66,0,0,1-.5-.59s0-.18.06-.21c.84-.72,2-.28,3-.59.62-.22,2-.41,2-1.12s-.22-1.46-.22-2.2c-.24,0-.71-.28-.83.13a4.4,4.4,0,0,1-1.64.49c-.28,0-.59-.12-.59-.43,0-.93,2.35-1.09,2.94-1.43.43-.28.46-1.21.46-1.64,0-.65.07-1.52-.74-1.52a7.25,7.25,0,0,0-3.59.81c-.25.15-.53.74-.69.93h-.06c-.09,0-.12,0-.18-.1s-.31-.4-.34-.46h-.07c-.21,0-.15.31-.18.46-.25,2.51-.59,5-.81,7.6-.12,1.42-.12,2.88-.22,4.27-.18,1.86-.65,3.63-.93,5.49-.09.15-.58.62-.71.62-.46,0-.83-.69-.83-1.06A8.21,8.21,0,0,1,245.55,25.47Zm9.33-17.33c.15,0,.49,0,.49-.24s-.37-.22-.49-.38Zm.46,7.66s.62-.16.71-.34a.84.84,0,0,0-.58-.25h-.13Z"/><path class="cls-3" d="M262.19,15.21c1.52,0,3.13,0,4.65-.09a5.63,5.63,0,0,1,1.61-.25,16.55,16.55,0,0,0,2.11-.84c.25-.09,2.26-1.33,2.88-1.7a13.32,13.32,0,0,0,3.72-3.6h-2.32c-.72,0-.62.38-.72.9,0,.25-.09,1.37-.09,1.64s-.25.32-.59.47-.68.25-.71-.47.37-1.42.37-2.2V9a1.19,1.19,0,0,0-.5-.12h0c-2.26,0-4.49.37-6.78.37a9.2,9.2,0,0,1-1.86-.13.68.68,0,0,1-.22-.55.52.52,0,0,1,.12-.38,13.09,13.09,0,0,0,1.46-.24h0a6.59,6.59,0,0,0,.71.24h1.15a48.59,48.59,0,0,0,5.92-.24l.34-.1A17.8,17.8,0,0,0,274,4.24a32.6,32.6,0,0,0-4.62.31l-1,.22c-.09,0-.43.21-.5.24h0c-.22,0-.56-.27-.56-.46s0-.12,0-.12l1.28-.81a16.71,16.71,0,0,0,5.2-.46,5.29,5.29,0,0,1,1.37-.47c.31,0,.49.06.49.47a9.53,9.53,0,0,1-.68,2c-.09.4-.43,2.17-.5,2.57.07.19.41.12.44.12h.4c.4,0,2.36-.09,2.79-.12a3.25,3.25,0,0,1,.56.22,1,1,0,0,1,0,.28c0,1.51-3.84,4.24-5.24,5.08-.34.18-1.24.31-1.24.77h.31c1.8-.37,4.34-1,6.51-1.61h.28c.37,0,.74.13.74.56,0,.93-.83.77-1.61.71-3.75.87-7.22,1.74-12.18,2.79a6.73,6.73,0,0,1-1.3.34c-.71,0-3-.12-3-1.21A.36.36,0,0,1,262.19,15.21ZM269,18.93a7.32,7.32,0,0,1-.37-1.18,2,2,0,0,1,0-.56c0-.4-.09-1.05.5-1.05.09,0,.31,0,.34.09l.59,2a.16.16,0,0,0,.16.12c1.79-.65,3.87-.87,5.63-1.52,1.15-.37,2.27-.77,3.48-1.18.86-.06,1.58-.43,2.35-.43a.42.42,0,0,1,.44.4c0,1.12-2.7,3.91-3.48,4.81a.22.22,0,0,0-.12.18c.47,0,.84-.06,1.21-.06s.31.28.31.47-.44.58-.71.58a39.83,39.83,0,0,1-7.16.35c-.22,0-1-.1-1.18-.13s-.16.16-.16.25c0,.53.62.87.62,1.49,0,.28-.15.93-.52.93-.53,0-.59-.47-.87-.81C269.51,22.09,269.35,20.48,269,18.93Zm1.86,1.73c.31.07,1.27.22,1.36.22h1.61a10,10,0,0,0,3-.22c0-.06.28-.18.34-.24s.84-.84.93-.9l1.74-2.36.09-.09c.06-.09.21-.5.25-.59H280a4.52,4.52,0,0,0-1.08.34,75.91,75.91,0,0,1-7.32,2.2,4.35,4.35,0,0,1-1.3.53C270.28,20,270.22,20.54,270.81,20.66Z"/><path class="cls-3" d="M291.23,15.52a1.55,1.55,0,0,0,0-.4c0-.25-.19-2.26-.19-2.48-.12-.93-.59-1.77-1.55-1.77-.18,0-.43.28-.58.34-.25.28-1.4,1.52-1.68,1.77s-.34.37-.65.37a.4.4,0,0,1-.4-.4.72.72,0,0,1,.25-.56c1.48-1.86,4.15-4,4.15-6.6,0-.16,0-.53,0-.59l-.25-.34c0,.12-.19.12-.28.12s-.25,0-.31-.12c.4-.25.28-.87.25-1.18a.54.54,0,0,1,.49-.25c.75,0,1.28,1.31,1.28,1.93a5.64,5.64,0,0,1-.84,2.78c-.16.31-.81,1.12-.81,1.49v0a3.45,3.45,0,0,1,1.15.84c.12.25.53,1.3.62,1.55a1.8,1.8,0,0,0,.12.25c.07.4.22,2.38.22,2.82s-.34,3.81-.34,4.21c0,0,0,.31,0,.4,0,.31.15.31.15.5a3.1,3.1,0,0,1-.93,2.33c-.46-.1-.4-.62-.4-.93C290.61,19.58,291.23,17.57,291.23,15.52Zm10,7.38c.34-.16.9-6.85,1-7.78,0-.22,0-1.18,0-1.37-.71,0-.84.25-.84-.4s.31-.4.62-.84V12s.19-4.43-.65-4.43a7.21,7.21,0,0,0-2.42.83c-.24.41-.37,1.89-1.17,1.89-.34,0-.37-.31-.37-.55a8.86,8.86,0,0,1,.24-2.17V3.93a1.91,1.91,0,0,1-.24-1.08c0-.25.27-.35.49-.35s.34.19.59.1c.31,1.42-.09,3.07.37,4.24l.34,0c1,0,2.26-.77,3.16-.62l4-.68a21.86,21.86,0,0,0,2.42-.25h.53a1.2,1.2,0,0,1,.12.35c0,.77-1.52,1.42-2.11,1.42-.43,0-.31-.28-.31-.59h-.65l-3.07.59a.59.59,0,0,0-.37.25c.28,1.08-.28,4.28.5,4.8a8.36,8.36,0,0,1,2.2-.34c.34,0,.84,0,.84.44s-.13.74-.56.74c-.06,0-.22-.12-.25-.12a5.75,5.75,0,0,0-2.48.83v.65c0,.53-.12,1.15.59,1.24a9.55,9.55,0,0,0,3.87-1.21,1.92,1.92,0,0,1,.84-.18,2.49,2.49,0,0,1,.46.09v.09c0,.5-.74.81-1.55,1.21a13,13,0,0,1-3.09,1.09A2.7,2.7,0,0,0,303,17v.43c-.25,2.23-.87,4.93-.72,7.19-.15.22-.55.75-.93.75s-.46-.53-.46-.75V22.71C301,22.71,301.21,22.74,301.24,22.9Z"/><path class="cls-3" d="M325.91,20.45c.62,0,1.27,2.26,2.14,2.82a.24.24,0,0,0,.25.34c0-.22.09-1.18.12-1.37v-.09c0-1.39-.19-2.85-.22-4.24-.06-.78-.12-2.58-.15-2.61l-.09-.09-.35,0-.49,0-3.16.34a9.77,9.77,0,0,0-3.47.59c.06,1.43-.44,3.35-.5,4.68v2c0,.34-.22,2.58-.93,2.58s-.46-.72-.46-1.09c0-.62.15-1.27.12-1.89l.59-4.68c-.09-.4.09-.71.09-1.11v-.5c0-.22-.37-.12-.43-.12-1.92,0-3.88.21-5.83.21h-.74a.63.63,0,0,1-.5-.59c0-.43.56-.68,1-.68a1.94,1.94,0,0,1,.59.25h5.95c.28,0,.34-1.24.34-1.42a8.28,8.28,0,0,0,.16-1.74c0-1.74-.37-3.38-.37-5.11V6.53a1.38,1.38,0,0,1,.46-.09c.19,0,.25,0,.34.22a6.09,6.09,0,0,1,.5,2.1v5a1.33,1.33,0,0,0-.16.77v.31a14.78,14.78,0,0,0,1.58.09,15.69,15.69,0,0,0,2.08-.46c.62-.1,3.59.37,3.72-.93,0-2.2.15-4.34.15-6.54v-.5c-.18-.18-.56-.09-.74-.09a8.7,8.7,0,0,0-4,1.52c-.4.25-.49.93-1.05,1a1.66,1.66,0,0,1-.09-.37c.15-2.08,3.56-3.16,5.42-3.16l.87,0c.28.09.83.12.83.59s-.21,1.58-.24,2c-.16,2-.07,3.84-.07,5.83a6,6,0,0,0,1.46-.09,7.38,7.38,0,0,0,.84-.22h.18c.16,0,.31,0,.31.22,0,.4-.43.77-.74.92-.19,0-1.09.13-1.27.16a2.3,2.3,0,0,1-.25.09,2.64,2.64,0,0,1-.46.13c0,.12-.1.77-.1,1v0c0,3,.47,6,.47,9.08,0,.46-.22.15-.37.46s.15.47-.35.47c-.86,0-2.13-2.79-2.44-3.66a10.28,10.28,0,0,0-.59-1.95A.1.1,0,0,1,325.91,20.45ZM319.74,1.23c0-.31.16-.31.44-.31a1.92,1.92,0,0,1,1.08.34c.31.19,1.8.93,2.11,1.06a1.35,1.35,0,0,1,.71,1.15c0,.21-.12.27-.34.27h-.12c-.56-.74-1.4-.89-2.2-1.3A1.62,1.62,0,0,1,319.74,1.23Zm2.42,15.93a12.44,12.44,0,0,1,2.26.75c.13,0,1.09.4,1.18.43s.12,0,.12,0V19c-.21,0-1.17-.06-1.39-.09s-1.27-.25-1.64-.34-1.09-.28-1.09-.84A.63.63,0,0,1,322.16,17.16Zm.15-7.28c0-.31.22-.43.5-.43,1.3,0,2.45,2.29,2.45,3.41,0,.06,0,.37-.13.37a25.68,25.68,0,0,1-2-2.36c-.12-.12-.68-.68-.8-.83S322.31,9.91,322.31,9.88Z"/><path class="cls-4" d="M189.52,33.69s68.58-3.45,114-3.37"/><path class="cls-4" d="M189.52,33.64c9.45-1.44,19-1.49,28.47-1.88s19-.63,28.51-.88c2.37-.07,4.75-.11,7.12-.17l3.57-.07,3.56-.07,7.13-.13,7.13-.1,7.13-.06,3.57,0H296.4l7.13.06c-4.75.07-9.5.12-14.25.23l-3.57.08-3.56.09-7.13.19q-14.25.4-28.49,1T218,33.08l-7.12.34-3.56.17-3.56.16c-1.19,0-2.38.08-3.56.1l-3.57,0a68.13,68.13,0,0,1-7.14-.16Z"/></svg>