<svg id="图层_2" data-name="图层 2" xmlns="http://www.w3.org/2000/svg" viewBox="0 0 144.33 72.17"><defs><style>.cls-1{fill:#fea600;}.cls-2{fill:#fff;}</style></defs><title>搜题宝视觉</title><path class="cls-1" d="M6,0H138.33a6,6,0,0,1,6,6V52.7a6,6,0,0,1-6,6H2a2,2,0,0,1-2-2V6A6,6,0,0,1,6,0Z"/><polygon class="cls-1" points="0 72.17 16.85 53.14 0 47.5 0 72.17"/><path class="cls-2" d="M17.17,11.32h6.17L40.7,39.37h.17v-28h5V45.88h-6L22.18,17.33V45.88h-5Z"/><path class="cls-2" d="M79.6,45.88H53.39V11.32H78.93v4.34H58.73V25.84h19v4.34h-19V41.37H79.6Z"/><path class="cls-2" d="M82.6,11.32h5.51q4.67,20.54,5.67,25.54c.11.34.34,1.34.67,3h.17c.33-1.34.61-2.4.83-3.18q1.5-5.16,6.68-25.37h5.67q6.35,24.89,6.85,26.21c.11.56.27,1.56.5,3h.17c.22-1.22.38-2.05.5-2.5q.17-1,5.84-26.71h5.51l-9,34.56h-5.51Q105.8,20,105.47,19.17a12.5,12.5,0,0,1-.34-2.34H105a20.2,20.2,0,0,1-.34,2.17q-.16.67-7.34,26.88H91.45Z"/></svg>