<svg id="图层_2" data-name="图层 2" xmlns="http://www.w3.org/2000/svg" viewBox="0 0 136.32 166.03"><defs><style>.cls-1{fill:#6196ef;}.cls-2{opacity:0.3;}.cls-3{opacity:0.7;}.cls-4{fill:#fff;}.cls-5{fill:none;stroke:#6196ef;stroke-linecap:round;stroke-linejoin:round;stroke-width:2.75px;}</style></defs><title>搜题宝视觉</title><path class="cls-1" d="M110.77,124.16h0a1.37,1.37,0,0,1-1.37-1.38L110.21,17a1.37,1.37,0,0,1,1.37-1.36h0A1.37,1.37,0,0,1,113,17l-.82,105.77A1.37,1.37,0,0,1,110.77,124.16Z"/><path class="cls-1" d="M16.57,143.3a17.25,17.25,0,0,1-12-4.71A14.81,14.81,0,0,1,0,127.77L.83,20C.9,11.2,8.69,3.73,18.2,3.38a17.29,17.29,0,0,1,12.68,4.7,14.73,14.73,0,0,1,4.56,10.81,1.37,1.37,0,0,1-1.37,1.37h0a1.39,1.39,0,0,1-1.37-1.39A12,12,0,0,0,29,10.05,14.58,14.58,0,0,0,18.3,6.13c-8.06.29-14.66,6.54-14.72,13.93L2.75,127.8a12.1,12.1,0,0,0,3.73,8.82,14.52,14.52,0,0,0,10.66,3.92c8.06-.3,14.67-6.55,14.73-13.93v-1a1.38,1.38,0,0,1,1.38-1.36h0a1.36,1.36,0,0,1,1.36,1.38v1c-.07,8.84-7.87,16.31-17.37,16.66Z"/><g class="cls-2"><path class="cls-1" d="M6.53,127.61,7.36,19.87C7.42,12.4,13.49,6,21.31,4.78a16.39,16.39,0,0,0-2.11,0h0c-8.8.32-16,7.17-16,15.3L2.33,127.76c-.06,8.13,7,14.45,15.82,14.13h0a18.21,18.21,0,0,0,2.1-.21C12.46,141,6.48,135.07,6.53,127.61Z"/></g><path class="cls-1" d="M125.83,16.89h0a1.39,1.39,0,0,1-1.37-1.39,12.06,12.06,0,0,0-3.73-8.82,14.54,14.54,0,0,0-10.66-3.92L18.3,6.13A1.34,1.34,0,0,1,16.88,4.8,1.37,1.37,0,0,1,18.2,3.38L110,0a17.29,17.29,0,0,1,12.68,4.7,14.83,14.83,0,0,1,4.56,10.82A1.37,1.37,0,0,1,125.83,16.89Z"/><path class="cls-1" d="M17.19,143.29a1.38,1.38,0,0,1-.05-2.75l91.76-3.37c8.06-.29,14.67-6.54,14.72-13.93v-1a1.39,1.39,0,0,1,1.39-1.36,1.37,1.37,0,0,1,1.36,1.39v1c-.07,8.84-7.86,16.31-17.37,16.66l-91.75,3.37Z"/><path class="cls-1" d="M34.07,20.26a1.38,1.38,0,0,1,0-2.75l91.76-3.37a1.38,1.38,0,0,1,.1,2.75L34.12,20.26Z"/><path class="cls-1" d="M33.25,127a1.38,1.38,0,0,1,0-2.75L125,120.89a1.36,1.36,0,0,1,1.43,1.32,1.38,1.38,0,0,1-1.32,1.43L33.3,127Z"/><g class="cls-3"><path class="cls-1" d="M17.68,42.17a1.38,1.38,0,0,1-.05-2.75l81.24-3a1.33,1.33,0,0,1,1.42,1.32A1.36,1.36,0,0,1,99,39.18l-81.24,3Z"/><path class="cls-1" d="M17.52,63.46a1.38,1.38,0,0,1-.05-2.75l81.23-3h.06a1.38,1.38,0,0,1,0,2.75l-81.24,3Z"/><path class="cls-1" d="M17.35,84.75A1.38,1.38,0,0,1,16,83.43,1.36,1.36,0,0,1,17.3,82l81.24-3h0a1.38,1.38,0,0,1,0,2.75l-81.23,3Z"/><path class="cls-1" d="M17.19,106.05a1.38,1.38,0,0,1-.05-2.75l81.24-3a1.35,1.35,0,0,1,1.42,1.32,1.38,1.38,0,0,1-1.32,1.43l-81.24,3Z"/></g><g class="cls-3"><ellipse class="cls-1" cx="63.33" cy="156.13" rx="61.85" ry="9.63" transform="translate(-5.8 2.48) rotate(-2.15)"/></g><g class="cls-2"><path class="cls-1" d="M123.69,131.53a17.36,17.36,0,0,1-7.48,2l-85.68,3.15c-.25.28-.52.56-.8.83a17.34,17.34,0,0,1-8.66,4.42l.42,0a18.21,18.21,0,0,1-2.1.21h-.21l-.75,0,91.75-3.37A17.09,17.09,0,0,0,123.69,131.53Z"/></g><g class="cls-2"><path class="cls-1" d="M33.86,15.16l91.72-3.36a13.73,13.73,0,0,1,.49,3.71L34.31,18.87Z"/></g><circle class="cls-1" cx="119.28" cy="45.08" r="17.04"/><path class="cls-4" d="M119.36,57.57a2.15,2.15,0,1,1,2.15-2.12,2.1,2.1,0,0,1-.64,1.5,2.13,2.13,0,0,1-1.51.62Z"/><path class="cls-4" d="M123.09,45.35a5.93,5.93,0,0,0-2.19,3.57v1.44a1.5,1.5,0,0,1-2.89,0v-1.1a8.2,8.2,0,0,1,3.07-5.4,7.46,7.46,0,0,0,2.75-4.72,3.74,3.74,0,0,0-1.07-3,3.78,3.78,0,0,0-3-1.1c-2.89,0-4.52,1.84-4.63,5.37a1.44,1.44,0,0,1-1.42,1.28,1.4,1.4,0,0,1-1.38-1.31v-.2a7,7,0,0,1,7.45-7.45,6.14,6.14,0,0,1,4.75,1.7,6.07,6.07,0,0,1,1.84,4.7,8.86,8.86,0,0,1-3.31,6.21Z"/><polygon class="cls-4" points="57.05 128.96 94.77 127.01 106.12 132.45 105.36 157.35 94.93 158.02 85.28 154.85 85.57 145.33 79.11 146.47 78.73 159.08 68.77 158.78 56.31 153.3 57.05 128.96"/><path class="cls-1" d="M78.73,160.46h0l-10-.3a1.26,1.26,0,0,1-.51-.11l-12.46-5.48a1.35,1.35,0,0,1-.82-1.3l.74-24.34a1.36,1.36,0,0,1,1.3-1.33l37.72-2a1.35,1.35,0,0,1,.66.13l11.35,5.44a1.35,1.35,0,0,1,.78,1.28l-.75,24.91a1.39,1.39,0,0,1-1.29,1.33L95,159.4a1.52,1.52,0,0,1-.52-.07l-9.65-3.17a1.37,1.37,0,0,1-.94-1.35l.24-7.83-3.7.65-.35,11.49A1.37,1.37,0,0,1,78.73,160.46Zm-9.65-3.05,8.32.25.34-11.24a1.37,1.37,0,0,1,1.14-1.31L85.33,144a1.35,1.35,0,0,1,1.14.32,1.38,1.38,0,0,1,.48,1.08l-.26,8.48,8.42,2.78,8.92-.58.69-22.76-10.23-4.9-36.1,1.87-.68,22.15Z"/><g class="cls-2"><polygon class="cls-1" points="67.78 137.29 67.19 156.56 56.31 153.3 57.05 128.96 67.78 137.29"/></g><g class="cls-2"><polygon class="cls-1" points="85.61 143.9 95.07 142.9 94.66 156.58 85.33 153.41 85.61 143.9"/></g><path class="cls-4" d="M95.61,88.41l1.76,0c-.07,5.13-.15,27.23,1.15,41.31a3.28,3.28,0,0,1-3,3.57,11.39,11.39,0,0,1-5.41-.65,3.43,3.43,0,0,1-2.1-2.55L83.4,106.87c-2.92,6.21-3.36,12.46-3.87,19.31A7,7,0,0,1,72,132.66l-.13,0A5.6,5.6,0,0,1,67,126.29c1.13-21.25,3.13-38.77,6.86-49.6a47.14,47.14,0,0,1-21-11,5.38,5.38,0,0,1-1.74-4.51,4.69,4.69,0,0,1,1.57-3.05,6,6,0,0,1,6.5-.9L75,64.56l.29-.24A12.89,12.89,0,1,1,94.09,65.7a18.18,18.18,0,0,1,6,4.86C107.22,78.85,101.36,84.94,95.61,88.41Z"/><path class="cls-5" d="M89.07,78.61l-6.72,3.94A3.53,3.53,0,0,0,80.61,86v.09a6.79,6.79,0,0,0,7.54,5.63,31.85,31.85,0,0,0,7.45-3.34c5.75-3.47,11.61-9.56,4.45-17.85a18.18,18.18,0,0,0-6-4.86"/><path class="cls-5" d="M94.09,65.7a12.9,12.9,0,1,0-18.84-1.38l-.29.24L59.18,57.25a6,6,0,0,0-6.5.9,4.69,4.69,0,0,0-1.57,3.05,5.38,5.38,0,0,0,1.74,4.51,47.14,47.14,0,0,0,21,11C70.15,87.52,68.15,105,67,126.29a5.6,5.6,0,0,0,4.81,6.35l.13,0a7,7,0,0,0,7.57-6.48c.51-6.85,1-13.1,3.87-19.31L88,130.13a3.43,3.43,0,0,0,2.1,2.55,11.39,11.39,0,0,0,5.41.65,3.28,3.28,0,0,0,3-3.57c-1.3-14.08-1.22-36.18-1.15-41.31"/><g class="cls-2"><path class="cls-1" d="M51.09,61.23S66.36,74,75.47,74c-.07,2.49-.68,3-.68,3S54,71.59,51.09,61.23Z"/></g><g class="cls-2"><path class="cls-1" d="M82.78,91.66s4.54,5.27,14.39-.71a25.82,25.82,0,0,0,.11-3.62S92.46,92,87.62,91.8Z"/></g><g class="cls-2"><path class="cls-1" d="M67,126.83s3.79,7,11.48.35C77.79,131,68.56,136.37,67,126.83Z"/></g><g class="cls-2"><path class="cls-1" d="M87.67,127.46s3.75,8.41,11.48.35C98.49,132.34,89.22,138.87,87.67,127.46Z"/></g></svg>