<svg id="图层_1" data-name="图层 1" xmlns="http://www.w3.org/2000/svg" viewBox="0 0 548 94"><defs><style>.cls-1{fill:#9c1f24;}.cls-2{fill:#221714;}.cls-3{fill:#a70003;}.cls-4{fill:#fff;}</style></defs><title>全品AI教研云</title><polygon class="cls-1" points="66.7 0 0 0 0 6.67 60.03 6.67 60.03 26.68 36.69 26.68 36.69 33.35 60.03 33.35 60.03 40.02 36.69 40.02 36.69 46.69 60.03 46.69 60.03 66.7 13.37 66.7 13.37 73.36 30.02 73.36 30.02 80.04 6.67 80.04 6.67 60.03 53.36 60.03 53.36 53.36 6.67 53.36 6.67 46.69 30.02 46.69 30.02 40.02 6.67 40.02 6.67 33.35 30.02 33.35 30.02 26.68 6.67 26.68 6.67 20.01 53.36 20.01 53.36 13.34 0 13.33 0 86.69 0.09 86.69 0.09 86.71 66.69 86.71 66.69 80.04 36.69 80.04 36.69 73.36 66.7 73.36 66.7 73.17 66.7 0"/><polygon class="cls-2" points="80.15 22.58 109.71 22.58 109.71 31.72 80.15 31.72 80.15 38.17 109.71 38.17 109.71 47.3 80.15 47.3 80.15 53.75 147.34 53.75 147.34 47.3 117.77 47.3 117.77 38.17 147.34 38.17 147.34 31.72 117.77 31.72 117.77 22.58 147.34 22.58 147.34 16.13 80.15 16.13 80.15 22.58"/><polygon class="cls-2" points="80.15 0 80.15 12.9 88.21 12.9 88.21 6.45 139.28 6.45 139.28 12.9 147.34 12.9 147.34 0 80.15 0"/><polygon class="cls-2" points="160.78 0 160.78 6.45 219.9 6.45 219.9 17.2 160.78 17.2 160.78 23.65 227.96 23.65 227.96 0 160.78 0"/><polygon class="cls-2" points="160.78 33.87 183.62 33.87 183.62 47.3 160.78 47.3 160.78 53.75 191.68 53.75 191.68 27.42 160.78 27.42 160.78 33.87"/><polygon class="cls-2" points="197.06 33.87 219.9 33.87 219.9 47.3 197.06 47.3 197.06 53.75 227.96 53.75 227.96 27.42 197.06 27.42 197.06 33.87"/><rect class="cls-2" x="241.4" width="24.09" height="6.45"/><rect class="cls-2" x="259.84" width="8.07" height="24.78"/><rect class="cls-2" x="272.07" width="36.52" height="6.45"/><rect class="cls-2" x="272.07" y="11.47" width="36.52" height="6.45"/><rect class="cls-2" x="251.31" y="47.3" width="57.28" height="6.45"/><rect class="cls-2" x="241.4" y="18.33" width="26.51" height="6.45"/><rect class="cls-2" x="241.4" y="27.46" width="26.51" height="6.45"/><rect class="cls-2" x="241.4" y="9.16" width="26.51" height="6.45"/><rect class="cls-2" x="251.31" y="37.36" width="16.6" height="6.45"/><rect class="cls-2" x="251.31" y="33.86" width="8.1" height="13.44"/><rect class="cls-2" x="286.3" y="16.13" width="8.1" height="15.59"/><rect class="cls-2" x="241.4" y="41.39" width="8.03" height="12.36"/><rect class="cls-2" x="272.07" y="11.47" width="8.08" height="22.49"/><rect class="cls-2" x="300.53" y="11.47" width="8.06" height="22.39"/><rect class="cls-2" x="286.3" width="8.1" height="14.51"/><rect class="cls-2" x="272.07" y="37.36" width="8.1" height="6.45"/><rect class="cls-2" x="300.53" y="37.36" width="8.06" height="6.45"/><polygon class="cls-2" points="294.4 34.04 280.17 43.81 280.17 37.36 294.4 27.59 294.4 34.04"/><polygon class="cls-2" points="286.3 34.04 300.53 43.81 300.53 37.36 286.3 27.59 286.3 34.04"/><rect class="cls-2" x="336.92" y="17.2" width="52.3" height="6.45"/><rect class="cls-2" x="338.39" y="29.64" width="49.36" height="6.45"/><rect class="cls-2" x="336.92" y="41.03" width="52.3" height="6.09"/><rect class="cls-2" x="353.66" width="8.07" height="6.45"/><rect class="cls-2" x="326.17" y="5.53" width="63.04" height="6.45"/><rect class="cls-2" x="359.02" y="26.34" width="8.1" height="27.41"/><rect class="cls-2" x="326.17" y="11.98" width="8.06" height="41.77"/><polygon class="cls-2" points="346.46 29.64 338.39 29.64 353.66 14.71 361.73 14.71 346.46 29.64"/><rect class="cls-2" x="322.03" y="47.3" width="12.21" height="6.45"/><path class="cls-2" d="M92.61,85.53a6.57,6.57,0,0,1-3.92,1.07,5.88,5.88,0,0,1-4-1.38c-1-.91-1.55-2.54-1.55-4.88V71.8H80.15v-3H83.1v-5h3.41v5h5.13v3H86.51v8.07q0,3.61,2.68,3.61a4.24,4.24,0,0,0,2.24-.63Z"/><path class="cls-2" d="M103.29,65.37a2.25,2.25,0,0,1-.63-1.58,2.18,2.18,0,0,1,.63-1.56,2.07,2.07,0,0,1,1.51-.65,2.1,2.1,0,0,1,1.57.65,2.15,2.15,0,0,1,.64,1.56,2.22,2.22,0,0,1-.65,1.58,2.13,2.13,0,0,1-1.56.66A2,2,0,0,1,103.29,65.37Zm3.25,20.86h-3.45V68.85h3.45Z"/><path class="cls-2" d="M119.38,86a2.32,2.32,0,0,1,0-3.16,2,2,0,0,1,1.53-.66,2.09,2.09,0,0,1,1.57.66,2.2,2.2,0,0,1,.64,1.59,2.16,2.16,0,0,1-.66,1.57,2.07,2.07,0,0,1-1.55.67A2,2,0,0,1,119.38,86Z"/><path class="cls-2" d="M145.62,81.31l2.65,1.54a6.21,6.21,0,0,1-2.56,2.81,7.54,7.54,0,0,1-3.8.94,8.47,8.47,0,0,1-4.29-1.11,7.94,7.94,0,0,1-3.08-3.16,10.72,10.72,0,0,1,0-9.62,8,8,0,0,1,3.08-3.16,8.47,8.47,0,0,1,4.29-1.11,7.65,7.65,0,0,1,3.8.94,6.29,6.29,0,0,1,2.56,2.82l-2.65,1.54a4.29,4.29,0,0,0-3.75-2.15,4.37,4.37,0,0,0-3.51,1.6A6.45,6.45,0,0,0,137,77.52a6.54,6.54,0,0,0,1.34,4.37,4.36,4.36,0,0,0,3.51,1.59A4.26,4.26,0,0,0,145.62,81.31Z"/><path class="cls-2" d="M170.9,70.29a7,7,0,0,1,1.92,5.29V86.23h-3a19.22,19.22,0,0,0-.17-2.14,5.67,5.67,0,0,1-5.15,2.51,7.82,7.82,0,0,1-3.2-.64A5.54,5.54,0,0,1,159,84.12a4.84,4.84,0,0,1-.87-2.91,4.76,4.76,0,0,1,2.11-4.09,9.09,9.09,0,0,1,5.39-1.51,14.93,14.93,0,0,1,3.79.51v-.07a5.42,5.42,0,0,0-.94-3.5,3.45,3.45,0,0,0-2.81-1.12,4.55,4.55,0,0,0-2.53.65A5.39,5.39,0,0,0,161.4,74l-2.54-1.47a6.47,6.47,0,0,1,2.71-3,8.26,8.26,0,0,1,4.29-1.11A7,7,0,0,1,170.9,70.29Zm-1.49,8.44a14.55,14.55,0,0,0-3.52-.5,5.32,5.32,0,0,0-3.11.77,2.46,2.46,0,0,0-1.11,2.14,2.37,2.37,0,0,0,.9,2,3.73,3.73,0,0,0,2.38.72,4.82,4.82,0,0,0,3.15-1.06,3.54,3.54,0,0,0,1.31-2.93Z"/><path class="cls-2" d="M198.71,70.29a7.63,7.63,0,0,1,1.68,5.32V86.23h-3.45V76.65a6.37,6.37,0,0,0-.91-3.71,3.09,3.09,0,0,0-2.74-1.31,4.36,4.36,0,0,0-3.2,1.32,5.11,5.11,0,0,0-1.32,3.77v9.51h-3.45V68.85h3c0,1.09.11,2,.2,2.84a5.92,5.92,0,0,1,2.33-2.42,6.65,6.65,0,0,1,3.34-.83A5.75,5.75,0,0,1,198.71,70.29Z"/><path class="cls-2" d="M225.66,69.53a8,8,0,0,1,2.83,3.15,11.55,11.55,0,0,1,0,9.71,7.81,7.81,0,0,1-2.83,3.14,7.15,7.15,0,0,1-3.77,1.07,7,7,0,0,1-3.15-.74,5.94,5.94,0,0,1-2.41-2.21V94h-3.45V68.85h3.05c0,1.12.11,2.06.2,2.84a6.15,6.15,0,0,1,2.46-2.42,6.85,6.85,0,0,1,3.3-.83A7.09,7.09,0,0,1,225.66,69.53Zm-1,12.36A6.71,6.71,0,0,0,226,77.52a6.75,6.75,0,0,0-1.3-4.37,4.15,4.15,0,0,0-3.39-1.59,4.74,4.74,0,0,0-3.5,1.47,6.13,6.13,0,0,0-1.46,4.49A6.05,6.05,0,0,0,217.79,82a4.79,4.79,0,0,0,3.5,1.44A4.18,4.18,0,0,0,224.7,81.89Z"/><path class="cls-2" d="M241.48,72.8a8.5,8.5,0,0,1,3.13-3.22,8.4,8.4,0,0,1,4.24-1.14A8.24,8.24,0,0,1,253,69.58a8.45,8.45,0,0,1,3.11,3.22,10.13,10.13,0,0,1,0,9.45A8.5,8.5,0,0,1,253,85.46a8.15,8.15,0,0,1-4.19,1.14,8.3,8.3,0,0,1-4.24-1.14,8.54,8.54,0,0,1-3.13-3.21,10.13,10.13,0,0,1,0-9.45Zm3.84,9.08a4.64,4.64,0,0,0,7,0,7.54,7.54,0,0,0,0-8.71,4.61,4.61,0,0,0-7,0,7.52,7.52,0,0,0,0,8.71Z"/><path class="cls-2" d="M269.28,65.37a2.26,2.26,0,0,1-.64-1.58,2.19,2.19,0,0,1,.64-1.56,2,2,0,0,1,1.51-.65,2.12,2.12,0,0,1,1.57.65,2.22,2.22,0,0,1,0,3.14,2.1,2.1,0,0,1-1.55.66A2,2,0,0,1,269.28,65.37Zm3.25,20.86h-3.45V68.85h3.45Z"/><path class="cls-2" d="M298.72,70.29a7.63,7.63,0,0,1,1.67,5.32V86.23h-3.45V76.65a6.45,6.45,0,0,0-.9-3.71,3.1,3.1,0,0,0-2.75-1.31A4.34,4.34,0,0,0,290.1,73a5.07,5.07,0,0,0-1.33,3.77v9.51h-3.45V68.85h3.05c0,1.09.11,2,.2,2.84a5.92,5.92,0,0,1,2.33-2.42,6.64,6.64,0,0,1,3.33-.83A5.77,5.77,0,0,1,298.72,70.29Z"/><path class="cls-2" d="M323.17,85.53a6.55,6.55,0,0,1-3.92,1.07,5.85,5.85,0,0,1-4-1.38q-1.56-1.36-1.56-4.88V71.8h-3v-3h3v-5h3.42v5h5.12v3h-5.12v8.07q0,3.61,2.67,3.61a4.25,4.25,0,0,0,2.25-.63Z"/><path class="cls-2" d="M334.64,86a2.32,2.32,0,0,1,0-3.16,2,2,0,0,1,1.53-.66,2.11,2.11,0,0,1,1.57.66,2.2,2.2,0,0,1,.64,1.59,2.16,2.16,0,0,1-.66,1.57,2.07,2.07,0,0,1-1.55.67A2,2,0,0,1,334.64,86Z"/><path class="cls-2" d="M360.88,81.31l2.65,1.54A6.18,6.18,0,0,1,361,85.66a7.52,7.52,0,0,1-3.8.94,8.46,8.46,0,0,1-4.28-1.11,7.94,7.94,0,0,1-3.08-3.16,10.72,10.72,0,0,1,0-9.62,8,8,0,0,1,3.08-3.16,8.46,8.46,0,0,1,4.28-1.11,7.62,7.62,0,0,1,3.8.94,6.25,6.25,0,0,1,2.57,2.82l-2.65,1.54a4.31,4.31,0,0,0-3.75-2.15,4.4,4.4,0,0,0-3.52,1.6,6.5,6.5,0,0,0-1.33,4.33,6.59,6.59,0,0,0,1.33,4.37,4.39,4.39,0,0,0,3.52,1.59A4.29,4.29,0,0,0,360.88,81.31Z"/><path class="cls-2" d="M387.54,70.29a7.63,7.63,0,0,1,1.68,5.32V86.23h-3.45V76.65a6.37,6.37,0,0,0-.91-3.71,3.08,3.08,0,0,0-2.74-1.31,4.36,4.36,0,0,0-3.2,1.32,5.11,5.11,0,0,0-1.32,3.77v9.51h-3.45V68.85h3c.05,1.09.11,2,.2,2.84a5.92,5.92,0,0,1,2.33-2.42,6.65,6.65,0,0,1,3.34-.83A5.75,5.75,0,0,1,387.54,70.29Z"/><path class="cls-3" d="M512.49,0H422.43a6.85,6.85,0,0,0-6.85,6.85v7.36a5,5,0,0,1-1.43,3.46L406.86,25a3.2,3.2,0,0,0,0,4.52l0,0,7.32,7.33a5,5,0,0,1,1.43,3.46v6.82A6.87,6.87,0,0,0,422.46,54h90.06a6.87,6.87,0,0,0,6.83-6.87V6.73A6.86,6.86,0,0,0,512.49,0Z"/><path class="cls-4" d="M437.7,23.85a11.5,11.5,0,0,1-3.27,9.21c-2.37,1.77-2.52-1.18-1.9-2.68s2.79-4.2,3.59-6.73C436.59,22,437.16,21.88,437.7,23.85ZM449,14.41c-1,1.14-1.27,4.53-.79,16.29.16,3,.4,9.36-2.51,10.78-1.3.64-1.11-1.42-4.14-4.6-1.57-1.68-1.27-2,.64-1.11,1.17.56,2.32,1,2.86.64.94-.71,1-5.24.87-12.64-.08-5.3-.23-9-1.26-10.71-.76-1.41-.91-1.8,1.18-1.33.55.15,4,1.74,3.15,2.68Zm12.32,16.83c-1.26.71-2.24-2.15-4.92-5.94-1.68-2.32-3.75-4-1.43-3.37a12.54,12.54,0,0,1,5.56,3.5c1.5,1.77,2.44,4.95.79,5.81Z"/><path class="cls-4" d="M495.7,10.47c.16.79-1,.94-5.05,8.15,5.8-.86,6-1.42,7.12-1.42.91,0,5.32,3,4.85,4.06-.32.71-2.84.15-6.26,2.21-2.52,1.44,1.57-3.24.79-4.06-1.11-1.26-16.73,2.15-21.34,2.15a10.15,10.15,0,0,1-2.48,5.24c-1.88,1.68-2.35-1.57-1.09-3.5A9.49,9.49,0,0,0,474,19.56c.15-1.89,1.68,0,1.68,1,6.41-.79,10.3-1.14,13.74-1.85,3.85-8.42,1.49-9.37,2.2-10.1S495.47,9.49,495.7,10.47Zm-2.79,15.15c-.08.56-2.29.24-5.39,3.23a3.48,3.48,0,0,1,1.1,2.09c5.82-.79,6.73-1.47,9.12-1.38,3.12,0,4.76,2.71,1.85,2.47a49.72,49.72,0,0,0-10.7.17,34.11,34.11,0,0,1,.17,9,6,6,0,0,1-3.51,4.51c-.64.09-1.93-2.23-3.11-3.18-3.47-2.76,2.79,0,3.74-1s1.26-4.77.86-9.13c-7.19,1.33-10.22,2-12,2.24-1,.15-4.76-1.53-2.17-1.68,3.12-.24,13.82-1.58,13.82-1.58-.94-2.16-2.2-2.65-2.05-3.19s1.68,0,2.12.16c2-2,2.79-3.54,2.26-4s-5.91,2-7.48,2.18c-1.19,0-3.75-1.69-1.82-1.82,8.15-.44,8.62-2.24,9.53-2.33S493,24.64,492.91,25.62Zm-12-11.53c.87,1.38.08,4.44-1.27,2.71a17.45,17.45,0,0,1-2.1-4.21C476.41,10.1,479.92,12.36,480.93,14.09Zm6.34-.62c.72,1.85-.71,4.29-1.8,2.24a16.22,16.22,0,0,1-1.68-4.3C483.06,8.7,486.73,11.78,487.27,13.47Z"/></svg>