<svg id="图层_2" data-name="图层 2" xmlns="http://www.w3.org/2000/svg" viewBox="0 0 104 33"><title>搜题宝视觉</title><path d="M19.27,16.16v-.23c.31.15.67.76,1.08,1.84.56,1.23,1,1.84,1.31,1.83,0-.23,0-.69,0-1.39a22.54,22.54,0,0,0-.2-4.3c0-.77,0-1.51,0-2.2,0-1.86,0-3.41,0-4.65a.3.3,0,0,1,.11-.24,1.62,1.62,0,0,0,.1-.7c0-.46-.63-.68-1.87-.66h-.12a38.37,38.37,0,0,0-5.91.46,2.5,2.5,0,0,0-.81.24,2.2,2.2,0,0,1-1.16.14,4.13,4.13,0,0,0-.81.25,2.91,2.91,0,0,0-.81.36,1.26,1.26,0,0,0-.46.24c-.08,0-.11,0-.11.12V8.2c.16.07.2.27.13.58V9l.13.46c0,.23,0,.39,0,.47a2.5,2.5,0,0,1,0,1.51c-.07.15,0,.27.24.34s.23,0,.23-.12L14.07,11h.12q.69.11.69-.24v-.24L14.26,8.7q-.12,0-.36-.69a.89.89,0,0,1-.12-.35,1.14,1.14,0,0,1-.24-.46.31.31,0,0,1,.34-.36c.62,0,1.1.72,1.43,2.19A3.46,3.46,0,0,0,16,10.76l.38,2,3.46-1.45a1.59,1.59,0,0,0,.47-.13.31.31,0,0,1,.35.35.68.68,0,0,1-.22.35c-1.08.48-2.16.93-3.23,1.33,0,.08-.12.2-.35.36a1.29,1.29,0,0,0-.57.47c-.12,1.71-.17,3.49-.14,5.35v.12a2,2,0,0,1-.56,1.17l-.12-.11c0-1.63-.06-3.29-.09-5v-.46c-.09-.54-.13-.85-.13-.93a9.83,9.83,0,0,0-1.85.73,7.91,7.91,0,0,1-2.77.86.33.33,0,0,1-.24-.11h-.35l-.1.58a4.35,4.35,0,0,0-.11.58c0,.62,0,1.24,0,1.86,0,.08,0,.43,0,1.05-.07.85-.1,1.35-.09,1.51a.31.31,0,0,1-.12.23c0,.24-.11.35-.34.36S9,21.65,9,21.34a26.78,26.78,0,0,1,.16-4.19L9.05,9.72a5.07,5.07,0,0,0-.13-.93,2.48,2.48,0,0,0-.14-.93,1.64,1.64,0,0,1-.35-.57,5,5,0,0,1-.26-1.51c0-.07.11-.11.34-.12A.69.69,0,0,1,9.1,6c.08.15.16.23.24.23a27.74,27.74,0,0,1,7.41-1.18c.08,0,.39,0,.93-.13l.93,0h.23a1.19,1.19,0,0,0,.35-.13h.35a3.51,3.51,0,0,0,.58.1,3.35,3.35,0,0,0,.58-.12l.58-.13h.11l.12.11c.78.38,1.14.87,1.07,1.49a12.08,12.08,0,0,1-.09,1.28,4.69,4.69,0,0,0-.21,1.29c-.05,1.39-.07,2.75,0,4.06a55.09,55.09,0,0,0,.46,6.27c0,.16.05.66.14,1.51l.13.58c0,.15,0,.23-.12.23s-.23,0-.23.12v.12c0,.15-.12.23-.35.24-.46-.07-1.1-.87-1.9-2.41ZM10,14.82l.12.23a2.56,2.56,0,0,0,.58-.25c.3-.31.53-.47.69-.47.08.15.16.23.24.22h.11a2.19,2.19,0,0,0,1-.25,20.53,20.53,0,0,0,2.31-1l.23-.24a5.88,5.88,0,0,1-.13-.92v-.24L15,11.7a5.17,5.17,0,0,1-1.27.26,4.53,4.53,0,0,0-1.27.37,7,7,0,0,0-1.16.25,7.19,7.19,0,0,1-.81.13c-.39.09-.58.21-.58.36Z"/><path d="M25,19.89a.45.45,0,0,1,.34-.47.36.36,0,0,0,.34-.24,3.71,3.71,0,0,0,.22-.93l.52-3.5v-.11c.06-.39.13-1,.2-1.75a62.37,62.37,0,0,0,.31-8.37.84.84,0,0,1,.35-.12,1.38,1.38,0,0,1,.82.33.68.68,0,0,0,.47.23,12.15,12.15,0,0,0,2,.08,24.21,24.21,0,0,0,3.37-.41,22.74,22.74,0,0,1,3.24-.41c.39,0,.62.07.7.22a1.65,1.65,0,0,1-1.6,1.08,24.33,24.33,0,0,0-4,.18c-1.16.1-2.05.15-2.67.17A6.3,6.3,0,0,0,28.34,6c-.15,0-.23.12-.22.36a6.34,6.34,0,0,0-.22,1,13.67,13.67,0,0,0-.3,2.67l.12.12h.7A19.92,19.92,0,0,0,32,9.66a18.17,18.17,0,0,1,3.36-.53l3.83-.07a1.08,1.08,0,0,0,.58-.24,1.81,1.81,0,0,1,.58-.12c.23,0,.31.11.24.34,0,.7-.64,1.06-2,1.08a1,1,0,0,0-.35-.11l-3.6.06q-3,.4-6.49,1.17a5.32,5.32,0,0,1-.69.12c-.07.47-.14,1.17-.2,2.1q-.39,4-.82,6.06a2.52,2.52,0,0,1-.33.93.37.37,0,0,0-.23.12c-.15.24-.3.32-.46.24S25.07,20.43,25,19.89Zm5.33-.56c-.08-.23,0-.38.34-.47a29.73,29.73,0,0,1-.9-4.86,1.87,1.87,0,0,1-.12-.58V13.3c-.09-.62.1-.89.56-.82q.36.11.36.81c0,.38.09.61.25.69h1.28a8.36,8.36,0,0,1,1.5-.38A13.14,13.14,0,0,1,35,13.32a18.36,18.36,0,0,1,2.09-.15c1.39,0,2.09.08,2.1.31v.12a3.35,3.35,0,0,1-.57.94A9,9,0,0,1,38,15.59c-.3.55-.75,1.45-1.34,2.7v.12l1.16,0c1.32,0,2,.24,2,.78,0,.08-.08.2-.23.36h-.35a3.18,3.18,0,0,1-.81-.1h-.58a9.1,9.1,0,0,0-1.74.15,3,3,0,0,0-.69.24l-.36-.11a1,1,0,0,0-.35-.11h-.11a11.19,11.19,0,0,1-2.2.39.48.48,0,0,1-.35.12l0,1.4a1.28,1.28,0,0,1-.46.7C31.11,22,30.66,21,30.32,19.33Zm1.74-.26h.7a8,8,0,0,0,1.5-.26c-.46.16-.34.16.35,0a3.36,3.36,0,0,0,.93-.25l.11-.12,1.91-4c.22-.31-.13-.46-1.06-.45l-5.33.91a.38.38,0,0,0-.22.35v.12C31.14,17.46,31.51,18.69,32.06,19.07Z"/><path d="M55,20.29h-.69c-.09-.7-.14-1.39-.16-2.09l-.11-.11a2,2,0,0,0-.58.24,2.39,2.39,0,0,0-.69.36,10.18,10.18,0,0,1-2.42,1.09.68.68,0,0,1-.47-.46l-.06-2.9a6.46,6.46,0,0,0-3.33,1.92v.34A3.49,3.49,0,0,0,46.91,20a1.52,1.52,0,0,1,.24.46,1.89,1.89,0,0,0,.12.46c0,.16,0,.35,0,.58a.33.33,0,0,1,.12.23c.08,0,.12.08.12.23A1,1,0,0,1,46.61,23a.76.76,0,0,1-.7-.33c-.08,0-.16-.08-.24-.23l-.12-.12a2.4,2.4,0,0,1-.35-.45Q43,18.29,43,16.9c0-.16,0-.27,0-.35a1,1,0,0,1,.46-.12c.39,0,.71.49,1,1.49a.88.88,0,0,0,.13.58l1.68,3.11.35.45c.16,0,.23-.12.23-.35a.48.48,0,0,0-.12-.35,1.71,1.71,0,0,1,.11-.46v-.47a3.23,3.23,0,0,1-.25-.69,1.79,1.79,0,0,0-.36-.92.3.3,0,0,0-.24-.11.46.46,0,0,1-.35-.46,1.13,1.13,0,0,1,.22-.47,5.91,5.91,0,0,1,3-1.91c.38-.17.69-.29.92-.37s.34-.35.33-.82v-.23c0-.23,0-.43,0-.58l-.34.24a1.1,1.1,0,0,0-.46.24l-.12.12a4.43,4.43,0,0,0-1.27.6l-.23.12a.35.35,0,0,0-.23.12h-.23c-.16,0-.35-.11-.59-.33a2.17,2.17,0,0,0,.11-.7,9,9,0,0,0-.29-2.9,3.45,3.45,0,0,0-.48-1.27,4.36,4.36,0,0,1-.5-1.5c0-.47.18-.71.57-.71h.24l.11.12a2,2,0,0,0,.25.81l.74,2.66a9.82,9.82,0,0,0,.4,2.55L48,13.9a.35.35,0,0,0-.12-.23v-.11c0-.08.07-.16.22-.24l.24-.12.45-.47a44.67,44.67,0,0,0,2.37-4.11A7.56,7.56,0,0,0,48.63,6L46.89,6a2.77,2.77,0,0,1-1-.1c-.46,0-.7-.14-.7-.45a1.8,1.8,0,0,1,.91-.71h.12l.24.23c0,.07.15.11.46.1h1.05q3.26.06,3.24-.75c0-.15-.48-.5-1.41-1-1.49-.83-2.24-1.51-2.25-2a.31.31,0,0,1,.34-.36c.24,0,.63.26,1.18.79a4.3,4.3,0,0,1,.47.35c.08,0,.35.18.82.56s.71.49.71.57a2.27,2.27,0,0,1,1,1.38h.23l3.36-.64a3.74,3.74,0,0,0,1.15-.25,10.33,10.33,0,0,1,1.16-.14c.39,0,.59.11.59.34-.07.62-.53,1-1.38,1.07-.23,0-.35-.07-.35-.23h-.35a11.88,11.88,0,0,0-3.24.64c-.44,1.4-.7,2.26-.77,2.57a.52.52,0,0,0-.11.35,4.49,4.49,0,0,0,1.31,1.84,1,1,0,0,0,.58-.36,6.62,6.62,0,0,1,.57-.48l.46-.47c.14-.47.41-.71.8-.71a1.33,1.33,0,0,0,.35.22A13.41,13.41,0,0,0,56.6,9.8c0,.08,0,.19,0,.35a10.4,10.4,0,0,1-.1,1.28c0,.54,0,.93,0,1.16-.21,1.24-.58,1.87-1.12,1.88s-.7-.14-.71-.45c0-.08.11-.2.34-.36s.23-.16.23-.23a9,9,0,0,0,.31-2.33,5.1,5.1,0,0,0-.14-1.16h-.11a1.66,1.66,0,0,0-.58.36.72.72,0,0,1-.34.24,2.28,2.28,0,0,1-.57.59c.08.46,0,.74-.34.82a.33.33,0,0,1-.23-.12H53a1.82,1.82,0,0,0-.47.12c.16-.08.12,0-.11.12l-.46.36a2.33,2.33,0,0,0-.57.36c-.23.16-.34.89-.31,2.21-.08.16,0,.23.12.23a18.93,18.93,0,0,1,3.13-.4,7.34,7.34,0,0,1,1-.14c1.86-.19,3.36-.37,4.52-.54l.12-.12c.38.07.58.26.59.57,0,.08,0,.43-.1,1.05s-.1,1-.1,1.16l-.22.47a1.37,1.37,0,0,1-.22.47q-.12.34-.33,1a30.29,30.29,0,0,1-1.9,4.68,1.08,1.08,0,0,1-.68.59C56.54,24,55.86,22.75,55,20.29ZM50,5.85a1.19,1.19,0,0,0,.48.57,1.32,1.32,0,0,1,.24.35,2,2,0,0,0,.59.57h.11a8,8,0,0,1,.34-.94c0-.31,0-.62,0-.93A7.2,7.2,0,0,0,50,5.73Zm1.7,3.69c-.08,0-.16.12-.23.35a3.68,3.68,0,0,1-.34.47,19.78,19.78,0,0,1-1.47,2.58,5.12,5.12,0,0,0,1-.59c.23-.24.38-.36.46-.36a2.57,2.57,0,0,1,.57-.36l.46-.36a.72.72,0,0,0,.46-.47l.11-.12A2.2,2.2,0,0,0,51.72,9.54ZM55.14,19c.57,1.92,1.22,3.11,1.92,3.56l1.12-2.22a8.79,8.79,0,0,1,.55-2,6.73,6.73,0,0,0,.65-2.8c0-.08,0-.19,0-.35l-1.16,0c-.62.09-1,.14-1.16.14-3.87.3-5.84.65-5.91,1,0,.08,0,.35-.1.82a2,2,0,0,1-.22.82v.11a.32.32,0,0,0,.36.35A5.2,5.2,0,0,0,53,17.65a4.51,4.51,0,0,1,1.38-.84,1.57,1.57,0,0,1,.84,1.61c0,.24,0,.39,0,.47Z"/><path d="M67.9,20.29c0-.31,0-.85.08-1.63a16.46,16.46,0,0,0,.09-1.74c0-.24,0-.58,0-1.05a5.86,5.86,0,0,1-.13-1c-.09-.62-.22-1.43-.4-2.44-.08-.3-.16-.57-.24-.8l-.12-.12a1.17,1.17,0,0,1-.23.35c-.3.71-.55,1.37-.78,2l-3.26,5.76a2.15,2.15,0,0,1-.79,1.29.46.46,0,0,1-.47-.34,6.19,6.19,0,0,1,1.45-3.05c.3-.55.71-1.29,1.24-2.23a12.55,12.55,0,0,0,1.9-4.1V11a.36.36,0,0,1-.34.24v-.11a2.81,2.81,0,0,1,.34-.71,5.87,5.87,0,0,0,.68-1.17,7.69,7.69,0,0,0,.42-2.57l-.7,0c-.47,0-1.16.06-2.09.15S62.86,7,62.32,7c-.24,0-.36-.19-.36-.58A1.37,1.37,0,0,1,62.65,6h.92c.47,0,1.2-.06,2.21-.16,1.93-.11,3.37-.21,4.29-.31a3.74,3.74,0,0,0,1.16-.25,3.64,3.64,0,0,1,1-.25h.23a.53.53,0,0,1,.13.35c-.15.47-.65.87-1.49,1.19a2.87,2.87,0,0,0-1,.48,7.06,7.06,0,0,0-1.73.85,3.16,3.16,0,0,1-.22.7,1.62,1.62,0,0,1-.22.7.83.83,0,0,1-.11.35v.23a3.37,3.37,0,0,0,.37,1.51l.63,2.77a.88.88,0,0,0,.22-.81,2,2,0,0,1,2.07-1.09,8.73,8.73,0,0,1,2.33.43,8,8,0,0,1,1.17.21c.08,0,.39,0,.93.1l.47.11.35.11a3.9,3.9,0,0,0,.7.22l.12.11v.23c-.07.55-.33.78-.8.71-.08,0-.16-.07-.23-.22S76,14,75.92,14a.37.37,0,0,1-.24-.11,3.61,3.61,0,0,0-1.74-.32l-2-.43A1,1,0,0,1,71.6,13h-.11c-1.4.1-2.2.54-2.42,1.32v.47a.79.79,0,0,0-.11.35l.08,4.53a1.84,1.84,0,0,1-.68,1.17l-.11.12Q67.91,21,67.9,20.29ZM69.51,6.43a1,1,0,0,1-.58.13q-.69,0-.69.48a2.44,2.44,0,0,0,1.27-.38Z"/><path d="M82.46,18.52a5.67,5.67,0,0,0-.48-.69,1.79,1.79,0,0,1-.6-1.27c0-.31.07-.46.22-.47s.36.23.36.69A9.58,9.58,0,0,0,85.74,20l.12.11a1.66,1.66,0,0,0,.82.22c.07,0,.18-.15.34-.47a5.69,5.69,0,0,1,.21-1.16q.09-1.05.09-1.17c0-.23,0-.65,0-1.28q0-3.94-.91-5.44a.72.72,0,0,0-.47-.46.33.33,0,0,1-.24-.11l-1.28,0q-.23,0-.24-.57V9.42L87,6.12a2.83,2.83,0,0,0,.8-1.18c.07-.15.22-.42.45-.82L88.13,4c-.93,0-1.86.07-2.79.16a4.45,4.45,0,0,0-.92.25A4.49,4.49,0,0,1,83,4.8c-.47,0-.7-.11-.7-.34,0-.46.14-.74.45-.82s1-.17,1.85-.27a16.69,16.69,0,0,1,1.74-.14h.12C86.1,3.16,87,3.1,89,3.06c.31.08.47.19.47.34a.37.37,0,0,1-.11.47.37.37,0,0,0-.11.23,4.07,4.07,0,0,0-.22.71,18.35,18.35,0,0,1-1.7,2.35,1.43,1.43,0,0,0-.46.47l-.45.48c-.38.39-.57.66-.57.82H86q1.88,1.47,2.07,5.19a17.46,17.46,0,0,1,.28,2.78c-.18,3.11-.66,4.7-1.43,4.79a3.07,3.07,0,0,1-1.64-.78,2.44,2.44,0,0,0-.59-.46,3.9,3.9,0,0,1-1.06-.67c0-.08-.19-.31-.59-.69Z"/><path d="M4.5,32s57.71-4.51,96-5.51"/><path d="M4.49,32c7.93-1.43,16-1.69,24-2.24s16-1,24-1.41,16-.8,24-1.13,16-.54,24-.68c-8,.3-16,.72-24,1.16s-16,1-24,1.49-16,1.09-24,1.68c-4,.29-8,.61-12,.89-2,.12-4,.23-6,.3a57.74,57.74,0,0,1-6,0Z"/></svg>