<svg id="图层_2" data-name="图层 2" xmlns="http://www.w3.org/2000/svg" xmlns:xlink="http://www.w3.org/1999/xlink" viewBox="0 0 81 59"><defs><style>.cls-1,.cls-6{fill:none;}.cls-2{clip-path:url(#clip-path);}.cls-3,.cls-4,.cls-5{fill:#333;}.cls-4{font-size:14.21px;}.cls-4,.cls-5{font-family:MicrosoftYaHei, Microsoft YaHei;}.cls-5{font-size:9.14px;}.cls-6{stroke:#333;stroke-linecap:round;stroke-miterlimit:10;stroke-width:1.01px;}</style><clipPath id="clip-path"><rect class="cls-1" width="81" height="59"/></clipPath></defs><title>搜题宝视觉</title><g class="cls-2"><path class="cls-3" d="M53.66,58.22H27a2.85,2.85,0,0,1,0-5.69H53.66a2.85,2.85,0,0,1,0,5.69"/></g><text class="cls-4" transform="translate(31.26 22.3) scale(0.99 1)">A3</text><text class="cls-5" transform="translate(22.25 33.26) scale(0.99 1)">（双栏）</text><g class="cls-2"><path class="cls-3" d="M65.07,1.13V9.18a6.43,6.43,0,0,0,6.39,6.45h8.21V55.38A2.6,2.6,0,0,1,77.09,58H3.59A2.6,2.6,0,0,1,1,55.38V3.74A2.6,2.6,0,0,1,3.59,1.13H65.07m1-1H3.59A3.61,3.61,0,0,0,0,3.74V55.38A3.61,3.61,0,0,0,3.59,59h73.5a3.6,3.6,0,0,0,3.58-3.62V14.61H71.46a5.41,5.41,0,0,1-5.38-5.43Z"/><line class="cls-6" x1="6.51" y1="26.39" x2="24.45" y2="26.39"/><line class="cls-6" x1="6.51" y1="19.14" x2="24.45" y2="19.14"/><line class="cls-6" x1="6.51" y1="33.64" x2="24.45" y2="33.64"/><line class="cls-6" x1="6.51" y1="40.88" x2="14.58" y2="40.88"/><line class="cls-6" x1="56.73" y1="26.39" x2="74.67" y2="26.39"/><line class="cls-6" x1="56.73" y1="19.14" x2="74.67" y2="19.14"/><line class="cls-6" x1="65.58" y1="0.51" x2="80.5" y2="15.07"/><line class="cls-6" x1="56.73" y1="33.64" x2="74.67" y2="33.64"/><line class="cls-6" x1="56.73" y1="40.88" x2="64.8" y2="40.88"/></g></svg>