<svg id="图层_2" data-name="图层 2" xmlns="http://www.w3.org/2000/svg" xmlns:xlink="http://www.w3.org/1999/xlink" viewBox="0 0 70 50"><defs><style>.cls-1,.cls-6{fill:none;}.cls-2{clip-path:url(#clip-path);}.cls-3,.cls-4,.cls-5{fill:#333;}.cls-4{font-size:14.23px;}.cls-4,.cls-5{font-family:MicrosoftYaHei, Microsoft YaHei;}.cls-5{font-size:9.15px;}.cls-6{stroke:#333;stroke-linecap:round;stroke-miterlimit:10;stroke-width:1.01px;}</style><clipPath id="clip-path"><rect class="cls-1" width="70" height="50"/></clipPath></defs><title>搜题宝视觉</title><g class="cls-2"><path class="cls-3" d="M48.22,49.22H21.61a2.85,2.85,0,0,1,0-5.7H48.22a2.85,2.85,0,0,1,0,5.7"/></g><text class="cls-4" transform="translate(26.38 22.78) scale(0.99 1)">B4</text><text class="cls-5" transform="translate(16.84 33.75) scale(0.99 1)">（双栏）</text><g class="cls-2"><path class="cls-3" d="M54.24,1.14v8a6.43,6.43,0,0,0,6.38,6.46h8.2V46.37A2.6,2.6,0,0,1,66.24,49H3.58A2.6,2.6,0,0,1,1,46.37V3.75A2.6,2.6,0,0,1,3.58,1.14H54.24m1-1H3.58A3.6,3.6,0,0,0,0,3.75V46.37A3.6,3.6,0,0,0,3.58,50H66.24a3.6,3.6,0,0,0,3.58-3.63V14.63h-9.2a5.41,5.41,0,0,1-5.38-5.44Z"/><line class="cls-6" x1="5.01" y1="24.15" x2="19.79" y2="24.15"/><line class="cls-6" x1="5.01" y1="16.9" x2="19.79" y2="16.9"/><line class="cls-6" x1="5.01" y1="31.41" x2="19.79" y2="31.41"/><line class="cls-6" x1="5.01" y1="38.66" x2="13.07" y2="38.66"/><line class="cls-6" x1="50.69" y1="24.15" x2="65.47" y2="24.15"/><line class="cls-6" x1="50.69" y1="16.9" x2="60.54" y2="16.9"/><line class="cls-6" x1="50.69" y1="31.41" x2="65.47" y2="31.41"/><line class="cls-6" x1="50.69" y1="38.66" x2="58.75" y2="38.66"/><line class="cls-6" x1="54.6" y1="0.51" x2="69.5" y2="15.08"/></g></svg>