<svg id="图层_2" data-name="图层 2" xmlns="http://www.w3.org/2000/svg" viewBox="0 0 34 34"><defs><style>.cls-1{fill:#ff7e3d;}.cls-2{fill:#fff;}</style></defs><title>矢量智能对象</title><path class="cls-1" d="M34,0V30a4,4,0,0,1-4,4H0"/><path class="cls-2" d="M21.23,29.37a1.32,1.32,0,0,1-.48-.09.5.5,0,0,1-.17-.1,1.1,1.1,0,0,1-.25-.17v0h0L15.6,24.35a.72.72,0,0,1,0-1,.71.71,0,0,1,1,0l4.62,4.55,8.17-8.69a.71.71,0,0,1,1,0,.72.72,0,0,1,0,1L22.17,29l0,0h0a1.09,1.09,0,0,1-.25.19l-.18.1A1.34,1.34,0,0,1,21.23,29.37Z"/></svg>