<svg xmlns="http://www.w3.org/2000/svg" width="59" height="72" viewBox="0 0 59 72"><defs><style>.a,.e{fill:#fff;}.a{stroke:#b1c8ff;}.b{fill:#487fff;}.c{fill:#e2e2e2;}.d{fill:#e4e8f1;}.e{font-size:12px;font-family:MicrosoftYaHei, Microsoft YaHei;}.f{stroke:none;}.g{fill:none;}</style></defs><g transform="translate(-1205.916 -288)"><g class="a" transform="translate(1210.916 288)"><rect class="f" width="54" height="72" rx="8"/><rect class="g" x="0.5" y="0.5" width="53" height="71" rx="7.5"/></g><path class="b" d="M4,0H50a4,4,0,0,1,4,4V18a4,4,0,0,1-4,4H0a0,0,0,0,1,0,0V4A4,4,0,0,1,4,0Z" transform="translate(1205.916 324)"/><path class="c" d="M0,0,5,3H0Z" transform="translate(1210.916 349) rotate(180)"/><rect class="d" width="40" height="4" transform="translate(1217.916 296)"/><rect class="d" width="40" height="4" transform="translate(1217.916 305)"/><rect class="d" width="16" height="4" transform="translate(1217.916 314)"/><text class="e" transform="translate(1220.916 340)"><tspan x="0" y="0">教案</tspan></text></g></svg>