<svg id="图层_1" data-name="图层 1" xmlns="http://www.w3.org/2000/svg" viewBox="0 0 251.03 78.42"><defs><style>.cls-1{fill:#ac0003;}.cls-2{fill:#231815;}</style></defs><polygon class="cls-1" points="60.32 0.09 60.32 0 0 0 0 6.03 54.3 6.03 54.3 24.13 33.18 24.13 33.18 30.16 54.3 30.16 54.3 36.2 33.18 36.2 33.18 42.23 54.3 42.23 54.3 60.33 12.09 60.33 12.09 66.36 27.15 66.36 27.15 72.39 6.03 72.39 6.03 54.29 48.26 54.29 48.26 48.26 6.03 48.26 6.03 42.23 27.15 42.23 27.15 36.2 6.03 36.2 6.03 30.16 27.15 30.16 27.15 24.13 6.03 24.13 6.03 18.1 48.26 18.1 48.26 12.06 0 12.06 0 78.41 0.08 78.41 0.08 78.42 60.32 78.42 60.32 72.39 33.18 72.39 33.18 66.36 60.33 66.36 60.33 66.17 60.33 0.09 60.32 0.09"/><polygon class="cls-2" points="79.25 47.93 95.67 47.93 95.67 53.01 79.25 53.01 79.25 56.6 95.67 56.6 95.67 61.67 79.25 61.67 79.25 65.26 116.59 65.26 116.59 61.67 100.16 61.67 100.16 56.6 116.59 56.6 116.59 53.01 100.16 53.01 100.16 47.93 116.59 47.93 116.59 44.35 79.25 44.35 79.25 47.93"/><polygon class="cls-2" points="83.72 35.38 79.25 35.38 79.25 42.56 83.72 42.56 83.72 38.97 112.11 38.97 112.11 42.56 116.59 42.56 116.59 35.38 83.72 35.38"/><polygon class="cls-2" points="124.06 35.38 124.06 38.97 156.92 38.97 156.92 44.94 124.06 44.94 124.06 48.53 161.4 48.53 161.4 35.38 124.06 35.38"/><polygon class="cls-2" points="124.06 54.21 136.76 54.21 136.76 61.67 124.06 61.67 124.06 65.26 141.25 65.26 141.25 50.62 124.06 50.62 124.06 54.21"/><polygon class="cls-2" points="144.23 54.21 156.92 54.21 156.92 61.67 144.23 61.67 144.23 65.26 161.4 65.26 161.4 50.62 144.23 50.62 144.23 54.21"/><polygon class="cls-2" points="190.53 38.37 190.53 35.38 184.56 35.38 184.56 38.37 168.87 38.37 168.87 41.96 206.21 41.96 206.21 38.37 190.53 38.37"/><polygon class="cls-2" points="190.86 54.77 205.47 43.75 198.84 43.75 187.54 52.26 176.25 43.75 169.62 43.75 184.23 54.77 175.08 61.67 168.88 61.67 168.88 65.26 176.94 65.26 187.54 57.27 198.14 65.26 206.21 65.26 206.21 61.67 200.02 61.67 190.86 54.77"/><path class="cls-2" d="M317.61,103.67H306.8V103H319V99.29h-.69V98h-4.4v1.27h-1.77v-2H319V93.66h-6.86v-.75H308.5v.75h-7.83v3.68h7.83v2h-7.83V103h2.51v2.12h-2.51v3.69h6.13v-1.42H314v1.2H307.2v3.69H314v1H301.23V117H314v1.9H301.23v3.69h16.38V117h1.93v-3.68h-1.93Zm6.27-8v-3H320v5.38h0v-2.4h0v3.57h18V95.65ZM331.77,112l5.88-11h-4.34L329,108.31,324.75,101h-4.34l5.87,11-4.4,6.89h-1.83v3.56h5l4-6.78,3.93,6.78h5v-3.56h-1.83Z" transform="translate(-86.99 -57.29)"/><path class="cls-2" d="M274.6,135.64v-6.13h2.79a2.79,2.79,0,0,1,2.14.79,3.11,3.11,0,0,1,.75,2.24,3.86,3.86,0,0,1-.3,1.55,2.49,2.49,0,0,1-.81,1.08,2.21,2.21,0,0,1-.82.37,6.29,6.29,0,0,1-1.26.1Zm.83-.79h1.35a3,3,0,0,0,2-.54,2.31,2.31,0,0,0,.59-1.8,2.47,2.47,0,0,0-.49-1.69,1.86,1.86,0,0,0-1.47-.57h-2Z" transform="translate(-86.99 -57.29)"/><path class="cls-2" d="M264.4,129.55l-2.47,6.14h.91l.68-1.78h2.64l.65,1.78h1l-2.37-6.14Zm-.59,3.62,1.05-2.71h0l1,2.71Z" transform="translate(-86.99 -57.29)"/><polygon class="cls-2" points="185.72 77.22 185.7 77.22 182.42 72.26 181.37 72.26 181.37 78.41 182.22 78.41 182.22 73.44 182.23 73.44 185.59 78.41 186.58 78.41 186.58 72.26 185.72 72.26 185.72 77.22"/><path class="cls-2" d="M175.42,129.53,173,135.67h.91l.69-1.79h2.64l.65,1.79h1l-2.39-6.14Zm-.59,3.62,1-2.71h0l1,2.71Z" transform="translate(-86.99 -57.29)"/><path class="cls-2" d="M185.62,135.67h.89v-2.59h4v-3.55h-4.92Zm.89-5.44h3.1l-.05,2.13h-3.05Z" transform="translate(-86.99 -57.29)"/><rect class="cls-2" x="112.19" y="72.24" width="0.88" height="6.15"/><polygon class="cls-2" points="119.15 77.19 119.12 77.19 115.85 72.24 114.79 72.24 114.79 78.38 115.64 78.38 115.64 73.42 115.66 73.42 119.01 78.38 120.01 78.38 120.01 72.24 119.15 72.24 119.15 77.19"/><polygon class="cls-2" points="96.75 77.19 96.73 77.19 93.44 72.24 92.39 72.24 92.39 78.38 93.25 78.38 93.25 73.42 93.27 73.42 96.61 78.38 97.61 78.38 97.61 72.24 96.75 72.24 96.75 77.19"/><polygon class="cls-2" points="120.83 72.97 123.06 72.97 123.06 78.38 123.94 78.38 123.94 72.97 126.18 72.97 126.18 72.24 120.83 72.24 120.83 72.97"/><polygon class="cls-2" points="79.25 72.24 79.25 78.37 79.25 78.38 85.01 78.37 85.01 77.55 80.11 77.55 80.11 73.05 85.01 73.05 85.01 72.24 79.25 72.24"/><path class="cls-2" d="M192,135.67h5.68v-6.14H192Zm.88-5.4h4v4.63h-4Z" transform="translate(-86.99 -57.29)"/><polygon class="cls-2" points="144.6 72.24 143.72 72.24 143.72 78.38 147.94 78.38 147.94 77.64 144.6 77.64 144.6 72.24"/><polygon class="cls-2" points="147.29 72.97 149.51 72.97 149.51 78.38 150.4 78.38 150.4 72.97 152.62 72.97 152.62 72.24 147.29 72.24 147.29 72.97"/><polygon class="cls-2" points="167.44 77.65 167.44 75.59 171.04 75.59 171.04 74.86 167.44 74.86 167.44 72.97 171.35 72.97 171.35 72.24 166.55 72.24 166.55 78.38 171.41 78.38 171.41 77.65 167.44 77.65"/><polygon class="cls-2" points="129.69 72.24 129.69 78.38 135.48 78.38 135.48 77.58 130.57 77.58 130.57 73.06 135.48 73.06 135.48 72.24 129.69 72.24"/><polygon class="cls-2" points="141.34 77.58 137.92 77.58 137.92 72.24 137.03 72.24 137.04 78.38 142.23 78.38 142.23 72.24 141.34 72.24 141.34 77.58"/><polygon class="cls-2" points="157.86 77.58 154.45 77.58 154.45 72.24 153.56 72.24 153.56 78.38 158.75 78.38 158.76 72.24 157.86 72.24 157.86 77.58"/><path class="cls-2" d="M252.47,133.08h0v-3.55h-5.13v6.12h.9v-2.57h1.82l1.42,2.59,1,0-1.42-2.57Zm-4.23-2.72h3.34v1.89h-3.34Z" transform="translate(-86.99 -57.29)"/><path class="cls-2" d="M290,135.67v-6.14h2.8a2.79,2.79,0,0,1,2.14.79,3.13,3.13,0,0,1,.75,2.24,3.83,3.83,0,0,1-.3,1.55,2.59,2.59,0,0,1-.81,1.09,2.18,2.18,0,0,1-.83.36,5.4,5.4,0,0,1-1.25.11Zm.84-.8h1.35a3,3,0,0,0,2-.54,2.32,2.32,0,0,0,.6-1.8,2.5,2.5,0,0,0-.5-1.68,1.84,1.84,0,0,0-1.47-.57h-2Z" transform="translate(-86.99 -57.29)"/><path class="cls-2" d="M312.41,129.53l-2.48,6.14h.93l.68-1.79h2.63l.65,1.79h1l-2.38-6.14Zm-.59,3.62,1.05-2.71h0l1,2.71Z" transform="translate(-86.99 -57.29)"/><rect class="cls-2" x="236.27" y="72.24" width="0.89" height="6.15"/><polygon class="cls-2" points="250.16 77.19 250.14 77.19 246.87 72.24 245.8 72.24 245.8 78.38 246.66 78.38 246.66 73.42 246.68 73.42 250.02 78.38 251.03 78.38 251.03 72.24 250.16 72.24 250.16 77.19"/><path class="cls-2" d="M325.72,135.67h5.69v-6.14h-5.69Zm.88-5.4h4v4.63h-4Z" transform="translate(-86.99 -57.29)"/><polygon class="cls-2" points="229.33 72.97 231.55 72.97 231.55 78.38 232.44 78.38 232.44 72.97 234.67 72.97 234.67 72.24 229.33 72.24 229.33 72.97"/><polygon class="cls-2" points="197.72 77.65 197.72 75.59 201.31 75.59 201.31 74.86 197.72 74.86 197.72 72.97 201.61 72.97 201.61 72.24 196.82 72.24 196.82 78.38 201.68 78.38 201.68 77.65 197.72 77.65"/><polygon class="cls-2" points="216.36 72.24 216.36 78.38 222.14 78.38 222.14 77.58 217.23 77.58 217.23 73.06 222.14 73.06 222.14 72.24 216.36 72.24"/><polygon class="cls-2" points="214.18 77.58 210.78 77.58 210.78 72.24 209.88 72.24 209.89 78.38 215.08 78.38 215.08 72.24 214.18 72.24 214.18 77.58"/></svg>